<svg width="727" height="750" viewBox="0 0 727 750" fill="none" xmlns="http://www.w3.org/2000/svg">
<path d="M726.325 710.5C718.025 716.7 705.825 716.4 696.525 711.8C687.125 707.2 680.225 699.1 674.425 690.7C659.725 669 651.425 643.9 639.825 620.6C628.225 597.3 611.625 574.4 586.925 563.9C548.425 547.5 504.525 565.6 465.125 579.8C454.825 583.5 443.825 587 432.925 585.3C419.025 583.2 407.725 572.7 401.225 560.6C394.725 548.6 392.225 535 389.525 521.7C380.725 478.9 368.025 435.1 338.225 402.1C308.425 369.1 242.925 339.1 170.925 365.7" stroke="white" stroke-width="0.7121" stroke-miterlimit="10"/>
<path opacity="0.9756" d="M172.025 363.2C212.425 349.2 250.625 354.1 281.525 367.3C303.625 376.7 321.925 390.2 334.225 404.3C345.725 417.3 354.725 431.8 362.225 447.2C365.125 453.2 367.725 459.2 370.225 465.4C376.025 479.9 380.625 494.6 384.425 509.4C385.525 513.7 386.625 518 387.625 522.3C389.825 531.3 391.825 540.5 395.225 549.2C396.625 552.7 398.225 556.2 400.125 559.5C403.325 565 407.625 570.2 412.725 574.5C418.325 579.2 424.725 582.8 431.825 584.2C434.525 584.7 437.225 584.9 440.025 584.8C447.825 584.6 455.525 582.2 462.825 579.8C470.125 577.4 477.625 574.8 485.225 572.3C504.525 566.1 524.425 560.7 544.125 560.6C556.725 560.5 569.325 562.6 581.525 567.9C589.425 571.4 596.625 576 603.125 581.5C616.825 593 627.225 608.2 635.525 623.5C643.925 639 650.725 655.2 659.025 670.8C662.825 678 667.025 685 671.825 691.7C677.725 700 684.825 708.1 694.225 712.7C703.625 717.3 715.825 717.9 724.225 712" stroke="white" stroke-width="0.7063" stroke-miterlimit="10"/>
<path opacity="0.9512" d="M172.225 361.1C211.125 348.6 247.725 354.7 277.825 368.6C299.225 378.5 317.125 392.4 329.525 406.8C340.925 420 350.025 434.6 357.725 450C360.725 455.9 363.425 462 366.025 468C372.125 482.3 377.125 496.5 381.325 510.6C382.525 514.7 383.725 518.9 384.825 523C387.225 531.7 389.425 540.4 393.025 548.7C394.425 552.1 396.125 555.4 398.125 558.5C401.425 563.7 405.925 568.7 411.025 573.1C416.725 577.9 422.925 581.6 429.725 583.2C432.325 583.8 434.925 584 437.625 584C445.125 584 452.525 582 459.525 579.8C466.525 577.7 473.825 575.4 481.025 573.3C499.525 567.9 518.725 563.3 538.025 563.9C550.425 564.2 562.925 566.6 575.125 572.1C583.125 575.7 590.325 580.3 596.925 585.7C610.825 597.1 621.625 611.7 630.325 626.5C639.225 641.5 646.325 657.2 655.125 672.4C659.125 679.4 663.425 686.3 668.325 692.9C674.425 701.1 681.625 709.1 691.125 713.8C700.625 718.5 712.825 719.2 721.225 713.6" stroke="white" stroke-width="0.7005" stroke-miterlimit="10"/>
<path opacity="0.9268" d="M171.625 359.3C208.925 348.3 244.025 355.6 273.225 370.3C293.925 380.8 311.525 395 323.825 409.7C335.125 423.1 344.325 437.8 352.325 453.1C355.425 459 358.225 465.1 361.025 471C367.525 485.1 372.925 498.8 377.525 512.3C378.825 516.3 380.125 520.2 381.425 524.2C384.025 532.5 386.525 540.8 390.225 548.6C391.725 551.8 393.425 554.9 395.525 558C398.925 563 403.525 567.8 408.725 572.1C414.425 576.9 420.525 580.8 427.125 582.6C429.625 583.3 432.225 583.6 434.725 583.7C441.925 583.9 449.025 582.2 455.825 580.4C462.625 578.6 469.525 576.6 476.525 574.8C494.325 570.1 512.625 566.4 531.625 567.7C543.825 568.5 556.225 571.2 568.425 576.8C576.425 580.4 583.725 585.1 590.425 590.5C604.525 601.8 615.625 615.9 624.725 630.2C633.625 644.5 641.225 659.6 650.325 674.5C654.525 681.3 659.025 688.1 664.025 694.7C670.325 702.8 677.625 710.7 687.225 715.4C696.825 720.1 708.925 721 717.425 715.8" stroke="white" stroke-width="0.6947" stroke-miterlimit="10"/>
<path opacity="0.9024" d="M170.225 357.8C206.025 348.3 239.525 356.7 267.825 372.3C287.825 383.3 305.125 397.9 317.325 412.9C328.525 426.5 337.825 441.3 346.125 456.6C349.325 462.5 352.325 468.5 355.125 474.4C361.925 488.3 367.825 501.4 372.725 514.4C374.225 518.2 375.525 522 376.925 525.7C379.725 533.6 382.425 541.5 386.325 548.9C387.925 551.9 389.725 554.9 391.825 557.8C395.425 562.5 400.025 567.1 405.325 571.5C411.125 576.3 417.025 580.4 423.425 582.4C425.825 583.2 428.325 583.6 430.725 583.7C437.625 584.2 444.425 582.8 450.925 581.3C457.425 579.8 464.025 578.2 470.725 576.6C487.725 572.7 505.325 569.9 523.925 571.8C535.825 573 548.125 576 560.425 581.8C568.425 585.5 575.825 590.3 582.525 595.5C596.925 606.6 608.325 620.2 617.725 634C627.225 647.9 635.225 662.4 644.625 676.9C649.025 683.5 653.625 690.2 658.825 696.7C665.225 704.7 672.725 712.6 682.425 717.3C692.025 722.1 704.225 723.1 712.825 718.2" stroke="white" stroke-width="0.6889" stroke-miterlimit="10"/>
<path opacity="0.878" d="M168.125 356.5C202.325 348.5 234.226 358.1 261.826 374.5C281.226 386.1 298.126 401 310.326 416.2C321.426 430 330.826 444.9 339.326 460.2C342.626 466.1 345.725 472.1 348.725 477.8C355.925 491.5 362.225 504.1 367.525 516.4C369.125 520 370.625 523.6 372.025 527.2C375.025 534.7 378.025 542.2 382.025 549.2C383.625 552.1 385.525 554.9 387.725 557.6C391.425 562.1 396.225 566.5 401.525 570.8C407.425 575.6 413.125 579.9 419.225 582.1C421.525 582.9 423.925 583.4 426.225 583.7C432.825 584.4 439.325 583.4 445.525 582.1C451.725 580.9 458.026 579.6 464.426 578.4C480.726 575.3 497.425 573.3 515.725 575.8C527.425 577.4 539.625 580.8 551.925 586.6C559.925 590.4 567.325 595.2 574.225 600.4C588.825 611.4 600.625 624.5 610.425 637.7C620.325 651 628.625 665 638.525 679.1C643.025 685.6 647.825 692.1 653.225 698.5C659.825 706.4 667.425 714.2 677.125 719C686.825 723.8 698.925 725 707.625 720.5" stroke="white" stroke-width="0.6831" stroke-miterlimit="10"/>
<path opacity="0.8537" d="M165.225 355.4C197.825 348.9 228.225 359.6 254.925 376.9C273.625 389 290.125 404.3 302.325 419.8C313.325 433.8 322.925 448.8 331.625 464.1C335.025 470 338.225 475.9 341.425 481.6C348.925 495.1 355.625 507.2 361.325 518.9C363.025 522.3 364.625 525.8 366.125 529.1C369.425 536.2 372.525 543.3 376.625 549.9C378.325 552.6 380.225 555.2 382.525 557.8C386.325 562 391.225 566.2 396.625 570.6C402.625 575.4 408.125 579.9 414.025 582.3C416.325 583.2 418.525 583.8 420.725 584.1C427.025 585.1 433.225 584.3 439.125 583.4C445.025 582.5 451.025 581.5 457.125 580.6C472.625 578.3 488.625 577.1 506.525 580.3C517.925 582.4 530.125 586 542.425 592C550.425 595.9 557.925 600.7 564.925 605.8C579.725 616.7 591.825 629.3 602.025 642C612.225 654.8 621.025 668.2 631.225 681.9C635.925 688.2 640.925 694.6 646.425 700.9C653.225 708.8 661.025 716.5 670.725 721.4C680.525 726.3 692.625 727.7 701.325 723.4" stroke="white" stroke-width="0.6774" stroke-miterlimit="10"/>
<path opacity="0.8293" d="M161.725 354.4C192.825 349.4 221.526 361.2 247.426 379.4C265.426 392 281.626 407.6 293.826 423.5C304.726 437.7 314.426 452.8 323.326 468.1C326.826 474 330.126 479.9 333.426 485.5C341.326 498.8 348.425 510.3 354.525 521.5C356.325 524.8 358.025 528 359.625 531.2C363.125 537.9 366.425 544.6 370.725 550.8C372.525 553.3 374.426 555.8 376.826 558.2C380.726 562.2 385.825 566.2 391.225 570.6C397.225 575.4 402.726 580.1 408.326 582.7C410.526 583.7 412.625 584.4 414.725 584.8C420.725 586 426.625 585.6 432.225 585C437.825 584.4 443.526 583.7 449.326 583.1C464.126 581.6 479.326 581.2 496.826 585.1C508.026 587.6 520.125 591.6 532.425 597.7C540.425 601.7 548.025 606.5 555.125 611.6C570.225 622.3 582.625 634.4 593.125 646.6C603.725 658.8 612.925 671.7 623.525 685C628.425 691.1 633.525 697.4 639.125 703.6C646.125 711.3 654.025 718.9 663.825 723.8C673.625 728.7 685.825 730.3 694.625 726.4" stroke="white" stroke-width="0.6716" stroke-miterlimit="10"/>
<path opacity="0.8049" d="M157.725 353.5C187.225 350 214.425 363 239.525 382C256.825 395.1 272.725 411.1 284.825 427.3C295.625 441.7 305.425 456.9 314.625 472.1C318.125 478 321.625 483.8 325.125 489.4C333.325 502.5 340.925 513.5 347.325 524.1C349.225 527.2 351.025 530.3 352.825 533.3C356.525 539.6 360.125 545.9 364.525 551.7C366.325 554.1 368.425 556.4 370.825 558.6C374.825 562.3 380.025 566.1 385.525 570.5C391.625 575.4 396.925 580.2 402.225 583C404.325 584.1 406.325 584.8 408.325 585.3C414.025 586.8 419.625 586.6 424.925 586.3C430.225 586 435.625 585.7 441.125 585.4C455.125 584.7 469.525 585.1 486.725 589.6C497.625 592.5 509.725 596.8 522.025 603.1C530.025 607.2 537.725 612 544.925 617C560.225 627.6 573.025 639.2 583.925 650.8C594.925 662.5 604.425 674.8 615.425 687.7C620.525 693.7 625.825 699.8 631.525 705.9C638.625 713.5 646.725 721.1 656.525 726C666.425 731 678.525 732.7 687.425 729.1" stroke="white" stroke-width="0.6658" stroke-miterlimit="10"/>
<path opacity="0.7805" d="M153.125 352.6C181.125 350.6 206.625 364.7 230.925 384.6C247.525 398.2 263.125 414.6 275.125 431.1C285.825 445.7 295.725 461 305.225 476.2C308.825 482.1 312.425 487.9 316.025 493.3C324.625 506.2 332.525 516.7 339.325 526.6C341.325 529.5 343.225 532.4 345.125 535.2C349.025 541.2 352.825 547 357.425 552.3C359.325 554.5 361.425 556.6 363.925 558.7C368.125 562.2 373.325 565.8 378.925 570.2C385.125 575.1 390.225 580.1 395.325 583.1C397.325 584.3 399.225 585.1 401.125 585.7C406.525 587.4 411.825 587.6 416.825 587.6C421.825 587.6 426.925 587.6 432.125 587.6C445.325 587.7 459.025 588.9 475.825 594.1C486.525 597.4 498.425 602 510.825 608.5C518.825 612.7 526.625 617.5 533.925 622.4C549.425 632.8 562.525 643.9 573.825 655.1C585.125 666.3 595.125 677.9 606.525 690.5C611.725 696.3 617.225 702.3 623.125 708.3C630.425 715.7 638.625 723.3 648.525 728.3C658.525 733.3 670.625 735.2 679.525 732" stroke="white" stroke-width="0.66" stroke-miterlimit="10"/>
<path opacity="0.7561" d="M148.025 351.7C174.425 351.2 198.425 366.4 221.825 387.2C237.725 401.3 253.025 418.1 265.025 434.9C275.625 449.7 285.625 465.2 295.325 480.3C299.025 486.2 302.725 492 306.525 497.3C315.425 510 323.825 519.9 331.025 529.3C333.125 532.1 335.125 534.8 337.125 537.4C341.325 543 345.225 548.4 350.025 553.3C351.925 555.3 354.125 557.3 356.725 559.3C361.025 562.6 366.425 565.9 372.025 570.4C378.225 575.3 383.225 580.5 388.125 583.7C390.025 584.9 391.825 585.8 393.625 586.5C398.725 588.5 403.725 588.9 408.425 589.3C413.125 589.6 418.025 589.9 422.925 590.2C435.425 591.1 448.225 593.1 464.725 599C475.125 602.7 487.025 607.7 499.425 614.3C507.525 618.6 515.325 623.4 522.725 628.3C538.525 638.6 551.925 649.2 563.525 659.8C575.225 670.4 585.625 681.5 597.325 693.7C602.725 699.3 608.325 705.2 614.425 711.1C621.925 718.4 630.225 725.9 640.225 731C650.225 736.1 662.325 738.2 671.425 735.2" stroke="white" stroke-width="0.6542" stroke-miterlimit="10"/>
<path opacity="0.7317" d="M142.525 350.7C167.425 351.7 189.725 368 212.325 389.7C227.625 404.3 242.526 421.5 254.426 438.5C264.926 453.5 275.025 469.1 285.025 484.2C288.825 490 292.725 495.8 296.625 501.1C305.825 513.6 314.725 523 322.225 531.8C324.425 534.4 326.525 536.9 328.625 539.4C333.025 544.6 337.225 549.6 342.125 554.1C344.125 555.9 346.325 557.8 349.025 559.6C353.425 562.6 358.925 565.8 364.625 570.2C370.925 575.1 375.726 580.5 380.326 584C382.126 585.3 383.825 586.3 385.525 587.1C390.325 589.3 395.026 590.1 399.426 590.7C403.826 591.3 408.425 591.9 413.025 592.6C424.725 594.2 436.826 597.1 452.926 603.7C463.126 607.9 474.926 613.1 487.326 619.9C495.426 624.3 503.326 629.1 510.826 633.9C526.826 644.1 540.525 654.2 552.625 664.2C564.725 674.3 575.425 684.8 587.625 696.6C593.225 702.1 599.025 707.8 605.125 713.6C612.825 720.8 621.225 728.3 631.325 733.4C641.425 738.5 653.525 740.8 662.625 738.2" stroke="white" stroke-width="0.6484" stroke-miterlimit="10"/>
<path opacity="0.7073" d="M136.625 349.6C159.925 352.1 180.725 369.5 202.525 392.1C217.125 407.2 231.625 424.7 243.625 442.1C254.025 457.3 264.225 473 274.425 488.1C278.325 493.9 282.325 499.7 286.325 504.8C295.925 517.1 305.225 525.9 313.125 534.2C315.425 536.6 317.725 539 319.825 541.2C324.425 546 328.825 550.6 333.925 554.7C336.025 556.4 338.325 558.1 340.925 559.7C345.425 562.5 351.025 565.4 356.825 569.9C363.225 574.8 367.825 580.4 372.225 584.1C373.925 585.5 375.525 586.6 377.125 587.4C381.625 589.9 386.025 590.9 390.125 591.9C394.225 592.9 398.525 593.7 402.825 594.7C413.825 597.1 425.025 600.8 440.825 608C450.725 612.6 462.525 618.2 474.925 625C483.025 629.5 490.925 634.3 498.625 639.1C514.825 649.1 528.925 658.7 541.325 668.3C553.725 677.9 564.925 687.8 577.425 699.3C583.225 704.6 589.125 710.2 595.425 715.9C603.225 723 611.825 730.4 621.925 735.5C632.125 740.7 644.125 743.1 653.325 740.8" stroke="white" stroke-width="0.6426" stroke-miterlimit="10"/>
<path opacity="0.6829" d="M130.325 348.1C152.125 352.1 171.225 370.5 192.225 394.1C206.125 409.7 220.325 427.6 232.225 445.3C242.525 460.7 252.825 476.5 263.325 491.6C267.325 497.4 271.425 503.1 275.625 508.2C285.525 520.3 295.225 528.6 303.525 536.2C305.925 538.4 308.325 540.6 310.625 542.7C315.425 547.1 320.025 551.3 325.325 555C327.425 556.5 329.825 558 332.525 559.5C337.225 562 342.925 564.8 348.725 569.2C355.125 574.1 359.625 579.9 363.825 583.8C365.425 585.3 366.925 586.4 368.425 587.4C372.625 590.1 376.725 591.5 380.525 592.8C384.325 594.1 388.325 595.3 392.325 596.5C402.525 599.7 413.025 604.2 428.325 612.1C438.025 617.1 449.625 623 462.125 630C470.225 634.6 478.225 639.4 486.025 644.1C502.525 654 516.825 663.1 529.625 672.1C542.425 681.1 554.025 690.5 566.825 701.6C572.825 706.7 578.925 712.2 585.325 717.8C593.325 724.8 602.025 732.1 612.225 737.3C622.425 742.5 634.525 745.1 643.825 743.2" stroke="white" stroke-width="0.6368" stroke-miterlimit="10"/>
<path opacity="0.6585" d="M123.825 346.4C144.025 351.9 161.625 371.4 181.725 395.9C194.925 411.9 208.825 430.3 220.625 448.3C230.925 463.9 241.225 479.8 252.025 494.8C256.125 500.6 260.325 506.3 264.725 511.3C275.025 523.2 285.125 531 293.725 538C296.225 540.1 298.725 542.1 301.125 544C306.125 548 311.026 551.8 316.426 555.1C318.626 556.4 321.026 557.8 323.826 559.1C328.626 561.4 334.426 563.9 340.326 568.4C346.826 573.4 351.125 579.3 355.025 583.4C356.525 585 357.926 586.2 359.326 587.2C363.226 590.2 367.025 591.9 370.525 593.4C374.125 595 377.726 596.5 381.426 598.1C390.926 602.1 400.625 607.4 415.525 616C424.925 621.4 436.525 627.6 449.025 634.8C457.125 639.5 465.225 644.3 473.125 649C489.825 658.7 504.525 667.3 517.725 675.8C530.825 684.3 542.825 693.1 556.125 703.8C562.225 708.7 568.525 714.1 575.125 719.6C583.325 726.5 592.125 733.7 602.425 739C612.725 744.3 624.725 747 634.125 745.4" stroke="white" stroke-width="0.631" stroke-miterlimit="10"/>
<path opacity="0.6341" d="M117.126 344.2C135.826 351.3 151.726 371.7 171.126 397.1C183.726 413.6 197.225 432.4 209.025 450.7C219.225 466.5 229.625 482.5 240.625 497.5C244.825 503.3 249.125 508.9 253.625 513.9C264.225 525.5 274.826 532.8 283.826 539.3C286.426 541.2 289.025 543 291.525 544.7C296.825 548.3 301.826 551.7 307.426 554.6C309.626 555.8 312.125 557 315.025 558.1C319.925 560.1 325.926 562.5 331.826 567C338.426 572 342.525 578.1 346.225 582.4C347.625 584 349.025 585.4 350.225 586.5C353.825 589.7 357.325 591.7 360.525 593.6C363.825 595.5 367.125 597.3 370.525 599.2C379.225 604 388.125 610.1 402.725 619.4C411.925 625.2 423.426 631.8 435.926 639.1C444.026 643.8 452.225 648.8 460.225 653.3C477.125 662.9 492.125 671 505.725 679C519.225 686.9 531.625 695.2 545.225 705.5C551.525 710.3 557.925 715.5 564.725 721C573.025 727.8 582.025 735 592.325 740.3C602.725 745.6 614.725 748.6 624.125 747.3" stroke="white" stroke-width="0.6252" stroke-miterlimit="10"/>
<path opacity="0.6098" d="M110.225 341.7C127.325 350.3 141.725 371.8 160.225 398.1C172.125 415.1 185.325 434.2 197.025 452.9C207.125 468.9 217.626 485 228.926 500C233.226 505.8 237.626 511.4 242.326 516.2C253.326 527.6 264.325 534.4 273.625 540.3C276.425 542 279.025 543.7 281.625 545.2C287.125 548.5 292.325 551.4 298.125 553.8C300.425 554.8 303.026 555.8 305.926 556.9C310.926 558.7 317.025 560.8 323.025 565.3C329.725 570.3 333.625 576.5 337.125 581.1C338.425 582.8 339.726 584.2 340.826 585.4C344.126 588.9 347.326 591.2 350.326 593.4C353.326 595.6 356.326 597.7 359.426 600C367.326 605.6 375.525 612.5 389.725 622.4C398.625 628.6 410.125 635.5 422.625 643C430.725 647.8 439.025 652.8 447.125 657.2C464.325 666.7 479.625 674.3 493.525 681.7C507.425 689.1 520.225 696.8 534.225 706.7C540.725 711.3 547.325 716.4 554.125 721.8C562.625 728.5 571.725 735.6 582.125 740.9C592.525 746.3 604.625 749.4 614.125 748.4" stroke="white" stroke-width="0.6195" stroke-miterlimit="10"/>
<path opacity="0.5854" d="M103.225 338.7C118.725 348.8 131.625 371.3 149.225 398.6C160.425 416 173.325 435.6 185.025 454.5C195.025 470.7 205.625 486.9 217.125 501.9C221.525 507.7 226.025 513.3 230.825 518C242.125 529.2 253.525 535.5 263.325 540.7C266.225 542.2 268.925 543.7 271.625 545.1C277.325 548 282.825 550.5 288.725 552.5C291.125 553.3 293.725 554.2 296.725 555.1C301.925 556.6 308.025 558.6 314.125 563.1C320.825 568.1 324.625 574.5 327.925 579.3C329.125 581.1 330.325 582.6 331.325 583.9C334.325 587.6 337.225 590.2 339.925 592.7C342.625 595.2 345.325 597.7 348.225 600.2C355.425 606.6 362.725 614.3 376.625 624.9C385.325 631.5 396.725 638.8 409.225 646.4C417.425 651.3 425.725 656.3 433.925 660.7C451.325 670 467.025 677.1 481.325 684.1C495.525 691 508.825 698.1 523.125 707.6C529.825 712 536.525 717 543.525 722.3C552.225 728.8 561.425 735.9 571.925 741.3C582.425 746.7 594.425 750 604.025 749.4" stroke="white" stroke-width="0.6137" stroke-miterlimit="10"/>
<path opacity="0.561" d="M96.1255 335.1C110.125 346.7 121.425 370.2 138.225 398.5C148.825 416.4 161.325 436.4 172.925 455.6C182.825 472 193.525 488.3 205.325 503.3C209.825 509.1 214.525 514.6 219.425 519.3C231.125 530.3 242.925 536 253.025 540.7C256.025 542.1 258.925 543.3 261.725 544.5C267.625 547 273.325 549.1 279.325 550.7C281.725 551.4 284.425 552.1 287.525 552.8C292.825 554 299.125 555.8 305.225 560.4C312.025 565.4 315.625 572 318.625 577C319.725 578.9 320.825 580.4 321.725 581.8C324.425 585.8 327.025 588.7 329.425 591.5C331.825 594.3 334.325 597.1 336.825 599.9C343.225 607.1 349.825 615.6 363.325 626.9C371.725 634 383.025 641.5 395.625 649.2C403.825 654.2 412.225 659.2 420.525 663.5C438.125 672.7 454.125 679.3 468.825 685.7C483.425 692 497.025 698.6 511.825 707.7C518.625 712 525.625 716.8 532.725 722C541.625 728.4 550.925 735.5 561.525 740.9C572.125 746.4 584.125 749.8 593.725 749.5" stroke="white" stroke-width="0.6079" stroke-miterlimit="10"/>
<path opacity="0.5366" d="M89.0254 331C101.425 344.1 111.225 368.6 127.125 397.9C137.025 416.2 149.225 436.7 160.725 456.2C170.525 472.8 181.325 489.2 193.425 504.1C198.025 509.8 202.825 515.4 207.925 519.9C219.925 530.7 232.225 535.9 242.725 540C245.825 541.2 248.825 542.3 251.725 543.3C257.825 545.4 263.725 547.1 269.925 548.3C272.425 548.8 275.225 549.3 278.325 549.9C283.725 550.9 290.125 552.5 296.325 557C303.225 562.1 306.625 568.8 309.425 574C310.425 575.9 311.425 577.6 312.225 579.1C314.625 583.4 316.925 586.5 319.025 589.7C321.125 592.8 323.325 595.9 325.525 599.1C331.225 607 336.925 616.4 350.125 628.4C358.325 635.9 369.525 643.8 382.125 651.6C390.325 656.7 398.725 661.7 407.225 666C425.125 675.1 441.425 681.2 456.425 687C471.325 692.8 485.425 698.7 500.525 707.5C507.525 711.6 514.625 716.3 521.925 721.4C530.925 727.7 540.425 734.7 551.025 740.2C561.625 745.7 573.625 749.3 583.425 749.4" stroke="white" stroke-width="0.6021" stroke-miterlimit="10"/>
<path opacity="0.5122" d="M81.9254 326.3C92.8254 340.9 101.025 366.5 116.025 396.7C125.325 415.4 137.025 436.3 148.625 456.2C158.325 473 169.225 489.5 181.525 504.4C186.225 510.1 191.125 515.6 196.325 520.1C208.725 530.7 221.425 535.4 232.225 538.8C235.425 539.8 238.525 540.7 241.525 541.6C247.925 543.3 253.925 544.6 260.325 545.4C262.825 545.7 265.725 546.1 268.925 546.5C274.525 547.2 281.025 548.6 287.225 553.2C294.125 558.3 297.425 565.2 300.025 570.6C300.925 572.6 301.825 574.4 302.525 575.9C304.625 580.4 306.625 583.9 308.425 587.3C310.225 590.7 312.125 594.1 314.025 597.6C318.925 606.3 323.925 616.5 336.725 629.1C344.725 637 355.825 645.2 368.425 653.2C376.625 658.5 385.125 663.5 393.725 667.7C411.825 676.6 428.425 682.2 443.925 687.6C459.225 692.9 473.725 698.2 489.225 706.6C496.425 710.5 503.625 715.1 511.025 720.1C520.225 726.3 529.825 733.2 540.525 738.7C551.225 744.2 563.225 748.1 573.025 748.4" stroke="white" stroke-width="0.5963" stroke-miterlimit="10"/>
<path opacity="0.4878" d="M74.9255 320.9C84.2255 337 90.9255 363.6 105.025 394.8C113.725 414 125.025 435.3 136.525 455.5C146.225 472.5 157.125 489.1 169.725 504C174.525 509.7 179.525 515.2 184.925 519.6C197.625 530 210.725 534.1 221.925 537C225.225 537.8 228.425 538.6 231.525 539.2C238.125 540.5 244.425 541.4 250.925 541.8C253.525 542 256.425 542.2 259.725 542.4C265.425 542.9 272.025 544 278.325 548.6C285.325 553.7 288.425 560.8 290.725 566.4C291.525 568.5 292.325 570.3 292.925 571.9C294.725 576.7 296.425 580.5 297.925 584.2C299.425 588 301.025 591.7 302.625 595.4C306.825 604.9 311.025 615.9 323.425 629.2C331.125 637.5 342.225 646 354.825 654.2C363.025 659.5 371.625 664.5 380.325 668.7C398.825 677.6 415.725 682.7 431.525 687.5C447.225 692.2 462.125 697 477.925 705.1C485.325 708.8 492.725 713.3 500.225 718.2C509.625 724.3 519.325 731.1 530.125 736.7C540.925 742.3 552.825 746.3 562.725 747" stroke="white" stroke-width="0.5905" stroke-miterlimit="10"/>
<path opacity="0.4634" d="M68.1255 314.8C75.9255 332.4 81.0254 360 94.3254 392.2C102.425 411.8 113.325 433.6 124.825 454C134.425 471.2 145.425 487.9 158.225 502.8C163.125 508.5 168.225 513.9 173.725 518.3C186.825 528.5 200.325 532.1 211.925 534.4C215.325 535.1 218.625 535.6 221.825 536.1C228.625 537 235.125 537.5 241.825 537.5C244.425 537.5 247.525 537.5 250.825 537.6C256.625 537.8 263.325 538.8 269.725 543.4C276.825 548.5 279.825 555.8 281.825 561.7C282.625 563.9 283.225 565.8 283.725 567.5C285.225 572.5 286.625 576.6 287.825 580.7C289.025 584.8 290.325 588.8 291.625 592.9C295.025 603.2 298.425 615 310.525 629C318.025 637.7 328.925 646.6 341.625 654.9C349.825 660.3 358.525 665.3 367.325 669.4C385.925 678 403.125 682.7 419.325 686.9C435.325 691.1 450.625 695.3 466.925 703C474.525 706.6 482.025 710.9 489.725 715.7C499.325 721.7 509.225 728.5 519.925 734.1C530.725 739.7 542.725 743.9 552.725 744.9" stroke="white" stroke-width="0.5847" stroke-miterlimit="10"/>
<path opacity="0.439" d="M61.4254 308C67.6254 327.1 71.3254 355.7 83.6254 388.9C91.0254 408.9 101.625 431.1 113.025 451.9C122.525 469.3 133.625 486.1 146.725 501C151.725 506.7 156.925 512.1 162.625 516.3C176.025 526.3 190.025 529.3 201.925 531.1C205.425 531.6 208.825 532 212.225 532.3C219.225 532.9 225.925 532.9 232.825 532.4C235.525 532.2 238.625 532.1 242.025 532.1C248.025 532.1 254.825 532.8 261.225 537.5C268.325 542.6 271.225 550.1 273.025 556.2C273.725 558.4 274.225 560.5 274.625 562.2C275.825 567.5 276.925 571.9 277.825 576.2C278.725 580.6 279.725 584.9 280.725 589.3C283.325 600.4 286.025 612.9 297.725 627.7C304.925 636.8 315.825 646 328.525 654.5C336.725 660 345.525 665 354.425 669C373.225 677.5 390.825 681.6 407.425 685.4C423.825 689.1 439.525 692.7 456.125 700C463.825 703.4 471.625 707.6 479.425 712.3C489.125 718.2 499.225 724.9 510.025 730.6C520.925 736.3 532.825 740.6 542.925 742" stroke="white" stroke-width="0.5789" stroke-miterlimit="10"/>
<path opacity="0.4146" d="M55.0255 300.4C59.7255 321 61.8255 350.6 73.2255 384.8C80.0255 405.3 90.2255 427.9 101.525 449C110.925 466.6 122.125 483.5 135.525 498.4C140.625 504.1 145.925 509.5 151.825 513.6C165.625 523.4 180.025 525.9 192.325 527C195.925 527.3 199.425 527.5 202.925 527.6C210.225 527.8 217.025 527.4 224.125 526.5C226.925 526.2 230.025 525.8 233.425 525.7C239.525 525.4 246.425 526 252.925 530.6C260.125 535.7 262.825 543.3 264.325 549.7C264.925 552 265.325 554.1 265.625 556C266.525 561.6 267.325 566.3 267.925 570.9C268.625 575.6 269.225 580.2 270.025 584.9C271.925 596.8 273.825 610.1 285.125 625.5C292.125 635 302.925 644.6 315.625 653.1C323.925 658.7 332.725 663.7 341.725 667.7C360.825 676.1 378.625 679.7 395.625 682.9C412.325 686 428.525 689.1 445.425 696C453.325 699.2 461.225 703.3 469.225 707.9C479.125 713.7 489.325 720.3 500.225 726C511.225 731.7 523.125 736.2 533.225 738" stroke="white" stroke-width="0.5731" stroke-miterlimit="10"/>
<path opacity="0.3902" d="M48.9254 291.9C52.0254 314 52.7254 344.6 63.2254 379.8C69.4254 400.7 79.2254 423.8 90.5254 445.2C99.8254 462.9 111.125 480 124.725 494.8C129.925 500.5 135.425 505.8 141.325 509.9C155.425 519.5 170.225 521.5 182.925 522C186.625 522.2 190.325 522.2 193.825 522.1C201.325 521.9 208.425 521.1 215.625 519.8C218.425 519.3 221.725 518.8 225.125 518.5C231.325 517.9 238.325 518.3 244.925 523C252.225 528.2 254.725 535.9 256.025 542.5C256.525 544.9 256.825 547.1 257.025 549C257.625 554.8 258.125 559.8 258.425 564.8C258.825 569.8 259.125 574.8 259.625 579.8C260.725 592.5 261.825 606.6 272.725 622.7C279.425 632.6 290.225 642.5 302.925 651.2C311.225 656.9 320.125 661.9 329.225 665.8C348.525 674 366.725 677.2 384.125 679.8C401.225 682.4 417.825 684.9 435.125 691.4C443.225 694.5 451.225 698.4 459.325 702.9C469.425 708.5 479.725 715.2 490.725 720.9C501.725 726.7 513.725 731.4 523.925 733.4" stroke="white" stroke-width="0.5674" stroke-miterlimit="10"/>
<path opacity="0.3659" d="M43.1255 282.5C44.7255 306.1 43.9255 337.7 53.4255 373.9C59.0255 395.2 68.4255 418.7 79.6255 440.5C88.9255 458.4 100.225 475.6 114.125 490.4C119.425 496.1 125.025 501.4 131.125 505.3C145.625 514.7 160.825 516.1 173.825 516.1C177.625 516.1 181.425 515.9 185.025 515.7C192.725 515.1 200.025 513.9 207.425 512.2C210.325 511.5 213.625 510.9 217.125 510.4C223.525 509.6 230.625 509.8 237.225 514.5C244.625 519.7 246.925 527.6 248.025 534.4C248.425 536.9 248.625 539.2 248.725 541.2C249.025 547.3 249.225 552.6 249.225 557.8C249.325 563.1 249.325 568.4 249.525 573.7C249.925 587.2 250.225 602.1 260.725 618.9C267.225 629.2 277.925 639.4 290.625 648.3C298.925 654 307.925 659.2 317.125 663C336.625 671.1 355.125 673.7 372.925 675.9C390.425 678 407.325 679.8 425.025 686C433.325 688.9 441.525 692.7 449.725 697.2C460.025 702.7 470.425 709.3 481.425 715.1C492.525 720.9 504.425 725.8 514.725 728.2" stroke="white" stroke-width="0.5616" stroke-miterlimit="10"/>
<path opacity="0.3415" d="M37.9254 272.2C37.9254 297.3 35.7254 329.9 44.2254 367.1C49.2254 388.9 58.2254 412.8 69.4254 434.9C78.6254 453 90.1255 470.3 104.125 485.1C109.425 490.7 115.225 496 121.525 499.9C136.325 509.1 152.025 510 165.425 509.4C169.325 509.2 173.225 508.9 176.925 508.4C184.825 507.4 192.325 505.8 199.925 503.7C202.825 502.9 206.225 502 209.825 501.4C216.325 500.3 223.525 500.3 230.225 505C237.625 510.2 239.825 518.3 240.625 525.3C240.925 527.9 241.025 530.2 241.025 532.3C241.025 538.6 240.925 544.2 240.625 549.8C240.425 555.4 240.225 561 240.025 566.6C239.625 580.9 239.225 596.6 249.325 614.1C255.625 624.8 266.125 635.4 278.925 644.4C287.225 650.2 296.225 655.4 305.625 659.1C325.425 667.1 344.225 669.2 362.325 670.8C380.125 672.4 397.525 673.6 415.625 679.4C424.125 682.1 432.425 685.8 440.825 690.2C451.225 695.6 461.825 702.1 472.925 708C484.125 713.9 496.025 718.9 506.325 721.6" stroke="white" stroke-width="0.5558" stroke-miterlimit="10"/>
<path opacity="0.3171" d="M33.9254 260.9C32.3254 287.5 28.7254 321.1 36.3254 359.2C40.7254 381.4 49.3254 405.8 60.4254 428.1C69.5254 446.4 81.1254 463.8 95.4254 478.6C100.825 484.2 106.725 489.5 113.125 493.3C128.325 502.3 144.425 502.7 158.125 501.4C162.125 501 166.125 500.5 170.025 499.9C178.125 498.5 185.825 496.5 193.625 494C196.625 493 200.025 492 203.725 491.2C210.325 489.8 217.725 489.7 224.425 494.4C231.925 499.6 233.925 507.9 234.525 515.1C234.725 517.7 234.725 520.2 234.625 522.4C234.325 529 233.925 534.9 233.325 540.8C232.825 546.7 232.325 552.6 231.825 558.6C230.725 573.6 229.425 590.2 239.225 608.3C245.225 619.5 255.725 630.3 268.525 639.5C276.825 645.4 285.925 650.6 295.425 654.3C315.425 662.1 334.525 663.8 353.125 664.8C371.325 665.8 389.125 666.5 407.525 671.9C416.125 674.4 424.725 678 433.225 682.3C443.825 687.6 454.525 694 465.725 699.9C476.925 705.8 488.825 711 499.325 714.1" stroke="white" stroke-width="0.55" stroke-miterlimit="10"/>
<path opacity="0.2927" d="M30.8254 248.5C27.7254 276.6 22.6254 311.3 29.2254 350.3C33.0254 373 41.2254 397.8 52.2254 420.4C61.2254 438.9 72.9254 456.4 87.5254 471.2C93.0254 476.8 99.0255 482 105.625 485.8C121.125 494.6 137.625 494.4 151.825 492.6C156.025 492.1 160.025 491.4 164.025 490.5C172.425 488.7 180.325 486.3 188.125 483.4C191.225 482.2 194.725 481 198.425 480.1C205.125 478.5 212.625 478.1 219.425 482.9C227.025 488.1 228.925 496.6 229.225 504C229.325 506.7 229.225 509.3 229.025 511.5C228.425 518.3 227.725 524.5 226.825 530.7C226.025 537 225.225 543.2 224.425 549.4C222.525 565.2 220.525 582.6 229.925 601.4C235.725 613 246.125 624.2 258.925 633.5C267.225 639.5 276.425 644.7 286.025 648.3C306.225 656 325.725 657.2 344.625 657.7C363.125 658.2 381.425 658.3 400.225 663.4C409.025 665.8 417.725 669.2 426.325 673.4C437.125 678.6 447.925 685 459.125 690.9C470.425 696.9 482.325 702.2 492.825 705.6" stroke="white" stroke-width="0.5442" stroke-miterlimit="10"/>
<path opacity="0.2683" d="M28.4255 235C23.7255 264.6 17.2254 300.3 22.8254 340.3C26.1254 363.4 33.8254 388.6 44.8254 411.6C53.7254 430.3 65.5254 447.9 80.3254 462.6C85.9254 468.2 92.0255 473.4 98.7255 477C114.625 485.6 131.525 484.9 146.025 482.5C150.325 481.8 154.425 480.9 158.525 479.9C167.125 477.8 175.225 474.9 183.225 471.5C186.325 470.2 189.925 468.8 193.725 467.8C200.625 465.9 208.125 465.4 215.025 470.1C222.625 475.4 224.425 484 224.425 491.6C224.425 494.4 224.325 497 223.925 499.4C223.025 506.5 221.925 513 220.925 519.5C219.825 526.1 218.725 532.6 217.625 539.1C214.925 555.7 212.225 573.9 221.225 593.4C226.725 605.4 237.125 616.9 249.925 626.4C258.225 632.5 267.525 637.7 277.225 641.3C297.725 648.8 317.425 649.5 336.725 649.5C355.625 649.5 374.225 649 393.425 653.7C402.425 655.9 411.225 659.2 420.025 663.3C431.025 668.4 441.925 674.7 453.225 680.7C464.625 686.7 476.425 692.3 487.025 696" stroke="white" stroke-width="0.5384" stroke-miterlimit="10"/>
<path opacity="0.2439" d="M26.7254 220.4C20.5254 251.5 12.5255 288.2 17.1255 329.2C19.8255 352.8 27.1254 378.4 38.0254 401.7C46.9254 420.6 58.7254 438.3 73.8254 453C79.5254 458.6 85.7255 463.8 92.6255 467.3C108.825 475.7 126.225 474.5 141.125 471.5C145.525 470.6 149.725 469.6 153.925 468.4C162.725 465.9 171.025 462.7 179.225 458.8C182.425 457.3 186.025 455.8 189.925 454.6C196.925 452.4 204.625 451.7 211.525 456.5C219.225 461.8 220.825 470.6 220.625 478.4C220.525 481.3 220.325 484 219.925 486.4C218.725 493.8 217.325 500.6 216.025 507.4C214.625 514.3 213.225 521.1 211.925 528C208.525 545.4 205.025 564.4 213.625 584.5C218.925 596.9 229.125 608.8 242.025 618.3C250.425 624.5 259.725 629.7 269.525 633.2C290.225 640.6 310.325 640.8 330.025 640.2C349.325 639.7 368.325 638.5 387.925 642.9C397.125 644.9 406.125 648.1 415.025 652.1C426.125 657.1 437.225 663.3 448.625 669.4C460.025 675.5 471.925 681.2 482.625 685.2" stroke="white" stroke-width="0.5326" stroke-miterlimit="10"/>
<path opacity="0.2195" d="M25.8254 204.6C18.0254 237.2 8.62544 274.9 12.3254 316.9C14.4254 340.9 21.3255 367 32.2255 390.6C41.0255 409.7 52.9255 427.5 68.2255 442.2C74.0255 447.8 80.4255 452.9 87.4255 456.4C103.925 464.6 121.725 462.8 137.025 459.2C141.525 458.1 145.925 456.9 150.125 455.5C159.125 452.6 167.725 449 176.025 444.7C179.225 443.1 183.025 441.3 186.925 440C194.025 437.6 201.825 436.7 208.825 441.4C216.625 446.7 218.025 455.7 217.625 463.7C217.425 466.6 217.125 469.5 216.625 472C215.125 479.6 213.425 486.7 211.825 493.8C210.125 501 208.425 508.1 206.825 515.3C202.625 533.5 198.325 553.2 206.625 574.1C211.725 586.9 221.825 599.1 234.725 608.8C243.125 615.1 252.525 620.3 262.425 623.7C283.325 631 303.725 630.7 323.825 629.6C343.425 628.5 362.925 626.8 382.825 630.8C392.225 632.6 401.325 635.7 410.425 639.6C421.725 644.5 432.925 650.7 444.425 656.7C455.925 662.8 467.725 668.7 478.525 673.1" stroke="white" stroke-width="0.5268" stroke-miterlimit="10"/>
<path opacity="0.1951" d="M25.7255 187.5C16.4255 221.6 5.52546 260.4 8.22546 303.3C9.72546 327.8 16.2255 354.2 27.0255 378.2C35.7255 397.5 47.7254 415.4 63.3254 430.1C69.2254 435.7 75.7254 440.8 82.8254 444.1C99.7254 452.1 117.925 449.8 133.525 445.6C138.125 444.4 142.625 443 147.025 441.4C156.325 438.1 165.025 434.1 173.525 429.4C176.825 427.6 180.625 425.7 184.625 424.2C191.825 421.5 199.825 420.4 206.825 425.2C214.625 430.5 215.925 439.6 215.225 448C215.025 451 214.525 453.9 213.925 456.5C212.125 464.4 210.125 471.8 208.225 479.2C206.225 486.7 204.225 494.2 202.325 501.6C197.425 520.6 192.325 541.1 200.225 562.7C205.025 575.9 215.125 588.4 228.025 598.3C236.425 604.7 245.925 609.9 255.925 613.3C277.125 620.4 297.825 619.6 318.225 618C338.225 616.4 358.125 614.1 378.425 617.7C387.925 619.4 397.225 622.3 406.525 626.1C418.025 630.8 429.325 637 440.825 643.1C452.425 649.3 464.225 655.3 475.025 660" stroke="white" stroke-width="0.521" stroke-miterlimit="10"/>
<path opacity="0.1707" d="M26.4254 169.1C15.5254 204.7 3.32545 244.5 4.92545 288.4C5.82545 313.3 11.9255 340.2 22.6255 364.4C31.2255 383.9 43.3254 401.9 59.2254 416.6C65.2254 422.2 71.8255 427.2 79.1255 430.5C96.3255 438.3 115.025 435.5 131.025 430.7C135.725 429.3 140.325 427.7 144.825 426C154.325 422.3 163.225 417.9 171.925 412.8C175.325 410.8 179.125 408.7 183.225 407.1C190.625 404.1 198.625 402.9 205.725 407.7C213.625 413 214.725 422.3 213.825 430.9C213.525 434 212.925 437 212.225 439.7C210.125 447.8 207.825 455.5 205.625 463.3C203.325 471.1 201.025 478.9 198.825 486.7C193.125 506.5 187.325 527.8 194.825 550.1C199.425 563.7 209.425 576.6 222.325 586.6C230.725 593.1 240.225 598.3 250.425 601.6C271.825 608.6 292.825 607.3 313.725 605.2C334.125 603.1 354.325 600.2 375.025 603.4C384.725 604.9 394.225 607.7 403.525 611.4C415.125 616 426.625 622.1 438.225 628.3C449.825 634.5 461.725 640.8 472.625 645.8" stroke="white" stroke-width="0.5153" stroke-miterlimit="10"/>
<path opacity="0.1463" d="M28.0254 149.4C15.6254 186.5 1.92543 227.4 2.62543 272.2C3.02543 297.6 8.62538 324.9 19.3254 349.4C27.9254 369.1 40.0254 387.2 56.1254 401.9C62.2254 407.5 68.9254 412.5 76.3254 415.7C93.9254 423.3 113.025 419.9 129.325 414.5C134.125 412.9 138.825 411.2 143.425 409.2C153.125 405.1 162.325 400.3 171.125 394.8C174.525 392.7 178.425 390.4 182.625 388.6C190.125 385.4 198.225 383.9 205.425 388.7C213.425 394 214.425 403.5 213.225 412.3C212.825 415.5 212.125 418.6 211.325 421.3C208.825 429.7 206.325 437.7 203.825 445.7C201.225 453.8 198.725 461.9 196.125 470C189.725 490.6 183.025 512.7 190.225 535.6C194.625 549.6 204.525 562.8 217.425 573C225.825 579.6 235.425 584.8 245.725 588.1C267.325 595 288.725 593.2 309.925 590.5C330.625 587.9 351.325 584.4 372.425 587.2C382.325 588.5 391.925 591.2 401.425 594.8C413.225 599.3 424.825 605.3 436.525 611.6C448.225 617.9 460.025 624.3 471.025 629.6" stroke="white" stroke-width="0.5095" stroke-miterlimit="10"/>
<path opacity="0.122" d="M30.6255 128.3C16.6255 166.9 1.52546 208.8 1.22546 254.6C1.02546 280.4 6.22544 308.1 16.8254 333C25.3254 352.9 37.5255 371.1 53.9255 385.7C60.1255 391.2 66.9255 396.2 74.5255 399.4C92.4255 406.8 111.925 402.9 128.725 396.9C133.625 395.1 138.425 393.2 143.125 391.1C153.025 386.6 162.425 381.4 171.425 375.5C174.925 373.2 178.925 370.8 183.025 368.8C190.625 365.3 198.925 363.7 206.125 368.5C214.225 373.9 215.025 383.5 213.625 392.5C213.125 395.8 212.325 398.9 211.425 401.8C208.625 410.4 205.825 418.8 203.025 427.1C200.125 435.5 197.325 443.9 194.425 452.3C187.225 473.6 179.825 496.6 186.625 520.2C190.725 534.6 200.525 548.2 213.525 558.5C221.925 565.2 231.625 570.4 242.025 573.6C263.925 580.3 285.525 578.1 307.125 574.8C328.225 571.7 349.325 567.6 370.725 570C380.825 571.1 390.625 573.7 400.225 577.2C412.225 581.6 423.925 587.6 435.625 593.8C447.425 600.1 459.225 606.7 470.225 612.4" stroke="white" stroke-width="0.5037" stroke-miterlimit="10"/>
<path opacity="0.073171" d="M38.5254 81.7C21.4254 123.4 3.5254 167.3 1.2254 215C-0.0745971 241.8 4.2254 270.3 14.7254 295.8C23.1254 316 35.4254 334.5 52.3254 349.1C58.7254 354.5 65.7254 359.5 73.6254 362.4C92.2254 369.4 112.625 364.4 130.025 357.3C135.125 355.2 140.125 352.9 145.025 350.4C155.425 345.2 165.225 339.1 174.525 332.3C178.125 329.7 182.225 326.9 186.525 324.7C194.325 320.7 202.825 318.7 210.225 323.5C218.425 328.9 218.925 338.9 217.025 348.3C216.325 351.7 215.325 355 214.225 358.1C210.825 367.2 207.425 376.2 204.025 385.1C200.525 394.1 197.125 403.2 193.725 412.2C185.025 435.1 176.125 459.7 182.025 484.7C185.725 500 195.325 514.2 208.325 524.7C216.725 531.5 226.625 536.9 237.125 539.9C259.425 546.3 281.825 543.1 304.125 538.8C325.925 534.6 347.825 529.3 370.025 531.1C380.425 531.9 390.525 534.2 400.425 537.6C412.725 541.8 424.825 547.6 436.625 554C448.525 560.4 460.325 567.3 471.525 573.7" stroke="white" stroke-width="0.4921" stroke-miterlimit="10"/>
<path opacity="0.04878" d="M44.1254 56.1C25.4254 99.3 6.22538 144.3 2.82538 192.9C0.925378 220.2 4.8254 249 15.2254 274.9C23.5254 295.3 35.9254 313.9 53.1254 328.5C59.6254 334 66.8254 338.9 74.8254 341.8C93.8254 348.6 114.625 343.1 132.425 335.3C137.625 333 142.825 330.6 147.825 327.9C158.425 322.3 168.425 315.8 177.925 308.6C181.625 305.8 185.725 302.8 190.125 300.5C198.125 296.2 206.725 294 214.125 298.9C222.425 304.3 222.725 314.5 220.625 324.1C219.825 327.6 218.725 331 217.525 334.1C213.825 343.5 210.125 352.7 206.425 362C202.725 371.4 198.925 380.7 195.225 390.1C185.725 413.8 176.125 439.2 181.625 464.8C185.025 480.5 194.625 495 207.625 505.7C216.125 512.6 226.025 518 236.625 520.9C259.225 527.2 281.825 523.5 304.525 518.6C326.725 513.9 349.025 508 371.525 509.4C382.125 510 392.425 512.2 402.425 515.5C414.925 519.6 427.125 525.3 439.025 531.8C451.025 538.3 462.725 545.4 474.025 552" stroke="white" stroke-width="0.4863" stroke-miterlimit="10"/>
<path opacity="0.02439" d="M50.7254 28.9C30.5254 73.6 9.82545 119.7 5.42545 169.2C2.92545 196.9 6.42541 226.2 16.8254 252.3C25.0254 272.9 37.5254 291.6 54.9254 306.2C61.5254 311.7 68.8254 316.6 76.9254 319.3C96.2254 325.8 117.425 319.8 135.625 311.5C140.925 309.1 146.225 306.4 151.325 303.6C162.125 297.6 172.425 290.7 182.025 283.1C185.725 280.1 190.025 277 194.425 274.5C202.525 269.9 211.225 267.6 218.725 272.4C227.025 277.8 227.325 288.2 224.825 298C223.925 301.6 222.725 305.1 221.425 308.3C217.425 317.9 213.425 327.5 209.425 337C205.425 346.7 201.325 356.3 197.325 366C187.125 390.5 176.625 416.7 181.825 443C185.025 459.1 194.425 473.9 207.525 484.8C216.025 491.8 226.025 497.2 236.725 500.1C259.525 506.3 282.525 502.1 305.625 496.7C328.125 491.4 350.925 485 373.825 486C384.625 486.4 395.025 488.5 405.225 491.7C417.925 495.7 430.225 501.4 442.125 507.8C454.125 514.3 465.925 521.6 477.325 528.6" stroke="white" stroke-width="0.4805" stroke-miterlimit="10"/>
</svg>
