<svg xmlns="http://www.w3.org/2000/svg" width="17" height="16" viewBox="0 0 17 16" fill="none">
  <g clip-path="url(#clip0_5_27341)">
    <path fill-rule="evenodd" clip-rule="evenodd" d="M5.52296 14.0333L7.60296 14.586V13.862L7.77296 13.6926H8.96296V15.138H7.68963L6.11896 14.458L5.52296 14.0333Z" fill="#CDBDB2"/>
    <path fill-rule="evenodd" clip-rule="evenodd" d="M12.317 14.0333L10.2776 14.586V13.862L10.1083 13.6926H8.91829V15.138H10.1943L11.765 14.458L12.317 14.0333Z" fill="#CDBDB2"/>
    <path fill-rule="evenodd" clip-rule="evenodd" d="M7.77296 12.4633L7.60362 13.862L7.81696 13.6927H10.023L10.2776 13.862L10.1083 12.4633L9.76762 12.25L8.06962 12.292L7.77296 12.4633Z" fill="#393939"/>
    <path fill-rule="evenodd" clip-rule="evenodd" d="M6.62695 2.99463L7.64495 5.3733L8.11362 12.2926H9.76695L10.2776 5.37263L11.213 2.9953L6.62695 2.99463Z" fill="#F89C35"/>
    <path fill-rule="evenodd" clip-rule="evenodd" d="M2.16829 8.21596L0.980957 11.656L3.95229 11.4866H5.86362V9.99996L5.77762 6.94263L5.35362 7.28396L2.16829 8.21596Z" fill="#F89D35"/>
    <path fill-rule="evenodd" clip-rule="evenodd" d="M4.41829 8.59863L7.90029 8.6853L7.51762 10.466L5.86429 10.042L4.41829 8.59863Z" fill="#D87C30"/>
    <path fill-rule="evenodd" clip-rule="evenodd" d="M4.41829 8.64001L5.86362 10V11.36L4.41829 8.64001Z" fill="#EA8D3A"/>
    <path fill-rule="evenodd" clip-rule="evenodd" d="M5.86362 10.042L7.56162 10.466L8.11362 12.292L7.73095 12.5053L5.86428 11.4013L5.86362 10.042Z" fill="#F89D35"/>
    <path fill-rule="evenodd" clip-rule="evenodd" d="M5.86363 11.4014L5.52296 14.034L7.77296 12.4634L5.86363 11.4014Z" fill="#EB8F35"/>
    <path fill-rule="evenodd" clip-rule="evenodd" d="M7.90028 8.68469L8.11362 12.2914L7.47562 10.4454L7.90028 8.68469Z" fill="#EA8E3A"/>
    <path fill-rule="evenodd" clip-rule="evenodd" d="M3.91095 11.4427L5.86428 11.4014L5.52228 14.034L3.91095 11.4427Z" fill="#D87C30"/>
    <path fill-rule="evenodd" clip-rule="evenodd" d="M1.91562 15.18L5.52229 14.0333L3.91096 11.4426L0.980957 11.656L1.91562 15.18Z" fill="#EB8F35"/>
    <path fill-rule="evenodd" clip-rule="evenodd" d="M7.64496 5.37268L5.81962 6.90135L4.41829 8.59868L7.90029 8.72668L7.64496 5.37268Z" fill="#E8821E"/>
    <path fill-rule="evenodd" clip-rule="evenodd" d="M5.52296 14.0334L7.77296 12.4634L7.60363 13.82V14.586L6.07496 14.286L5.52296 14.0334ZM12.317 14.0334L10.1083 12.4634L10.2776 13.82V14.586L11.8063 14.286L12.317 14.0334Z" fill="#DFCEC3"/>
    <path fill-rule="evenodd" clip-rule="evenodd" d="M6.96762 9.448L7.43429 10.4247L5.77762 10L6.96762 9.448Z" fill="#393939"/>
    <path fill-rule="evenodd" clip-rule="evenodd" d="M1.87163 1L7.64496 5.37267L6.66829 2.99467L1.87163 1Z" fill="#E88F35"/>
    <path fill-rule="evenodd" clip-rule="evenodd" d="M1.87162 1L1.10762 3.336L1.53229 5.88267L1.23562 6.052L1.66029 6.43467L1.31895 6.732L1.78762 7.156L1.49095 7.41133L2.16762 8.26067L5.35295 7.284C6.91029 6.03667 7.67295 5.40133 7.64429 5.37267C7.61829 5.344 5.69162 3.888 1.87162 1Z" fill="#8E5A30"/>
    <path fill-rule="evenodd" clip-rule="evenodd" d="M15.6683 8.21596L16.8583 11.656L13.8869 11.4866H11.9756V9.99996L12.0623 6.94263L12.4863 7.28396L15.6683 8.21596Z" fill="#F89D35"/>
    <path fill-rule="evenodd" clip-rule="evenodd" d="M13.4183 8.59863L9.93962 8.6853L10.3196 10.466L11.9756 10.042L13.4183 8.59863Z" fill="#D87C30"/>
    <path fill-rule="evenodd" clip-rule="evenodd" d="M13.4183 8.64001L11.9756 10V11.36L13.4183 8.64001Z" fill="#EA8D3A"/>
    <path fill-rule="evenodd" clip-rule="evenodd" d="M11.9756 10.042L10.2776 10.466L9.72562 12.292L10.1083 12.5053L11.9756 11.4013V10.042Z" fill="#F89D35"/>
    <path fill-rule="evenodd" clip-rule="evenodd" d="M11.9756 11.4014L12.317 14.034L10.1083 12.5054L11.9756 11.4014Z" fill="#EB8F35"/>
    <path fill-rule="evenodd" clip-rule="evenodd" d="M9.93962 8.68469L9.72629 12.2914L10.3636 10.4454L9.93962 8.68469Z" fill="#EA8E3A"/>
    <path fill-rule="evenodd" clip-rule="evenodd" d="M13.9289 11.4427L11.9756 11.4014L12.3169 14.034L13.9289 11.4427Z" fill="#D87C30"/>
    <path fill-rule="evenodd" clip-rule="evenodd" d="M15.9236 15.18L12.317 14.0333L13.929 11.4426L16.8583 11.656L15.9236 15.18Z" fill="#EB8F35"/>
    <path fill-rule="evenodd" clip-rule="evenodd" d="M10.1943 5.37268L12.0176 6.90135L13.4183 8.59868L9.93962 8.72668L10.1943 5.37268Z" fill="#E8821E"/>
    <path fill-rule="evenodd" clip-rule="evenodd" d="M10.8716 9.448L10.405 10.4247L12.0623 10L10.8716 9.448Z" fill="#393939"/>
    <path fill-rule="evenodd" clip-rule="evenodd" d="M15.9676 1L10.1943 5.37267L11.1683 2.99467L15.9676 1Z" fill="#E88F35"/>
    <path fill-rule="evenodd" clip-rule="evenodd" d="M15.9676 1L16.731 3.336L16.3063 5.88267L16.6036 6.052L16.179 6.43467L16.5176 6.732L16.051 7.156L16.3483 7.41133L15.6683 8.26067L12.4863 7.284C10.929 6.03667 10.1663 5.40133 10.1943 5.37267C10.221 5.344 12.145 3.888 15.9676 1Z" fill="#8E5A30"/>
  </g>
  <defs>
    <clipPath id="clip0_5_27341">
      <rect width="16" height="16" fill="white" transform="translate(0.980957)"/>
    </clipPath>
  </defs>
</svg>