<svg width="48" height="49" viewBox="0 0 48 49" fill="none" xmlns="http://www.w3.org/2000/svg">
<g clip-path="url(#clip0_2443_49918)">
<path d="M24 48.5189C37.2548 48.5189 48 37.7738 48 24.5189C48 11.2641 37.2548 0.518921 24 0.518921C10.7452 0.518921 0 11.2641 0 24.5189C0 37.7738 10.7452 48.5189 24 48.5189Z" fill="#0086B6"/>
<mask id="mask0_2443_49918" style="mask-type:alpha" maskUnits="userSpaceOnUse" x="0" y="0" width="48" height="49">
<path d="M24 48.5189C37.2548 48.5189 48 37.7738 48 24.5189C48 11.2641 37.2548 0.518921 24 0.518921C10.7452 0.518921 0 11.2641 0 24.5189C0 37.7738 10.7452 48.5189 24 48.5189Z" fill="white"/>
</mask>
<g mask="url(#mask0_2443_49918)">
<path fill-rule="evenodd" clip-rule="evenodd" d="M13.7243 15.802C16.6789 14.2264 20.4095 13.4398 24.9161 13.442C29.4212 13.442 33.1518 14.2287 36.108 15.802C36.6275 16.0788 36.9331 16.6058 36.8964 17.1617L36.3018 26.1168C36.0483 29.9179 33.8705 33.3815 30.4331 35.4501L25.7737 38.2563C25.2518 38.5705 24.5802 38.5705 24.0583 38.2563L19.399 35.4503C15.9617 33.3815 13.7839 29.9179 13.5305 26.1168L12.9358 17.1617C12.8991 16.6058 13.2047 16.0788 13.7243 15.802Z" stroke="white" stroke-width="0.5"/>
<path d="M13.8522 15.8068L24.4453 33.6022C24.5485 33.7755 24.7449 33.8828 24.9578 33.8822C25.1707 33.8817 25.3664 33.7735 25.4687 33.5998L35.9798 15.7192" stroke="white" stroke-width="0.5"/>
<path d="M14.6697 30.4484L24.7158 13.7707C24.7782 13.6672 24.8962 13.6034 25.0238 13.6041C25.1515 13.6049 25.2685 13.6702 25.3295 13.7745L35.1041 30.5218" stroke="white" stroke-width="0.5"/>
<path d="M30.9231 25.1836C31.6158 25.1836 32.1773 24.6216 32.1773 23.9282C32.1773 23.2349 31.6158 22.6729 30.9231 22.6729C30.2304 22.6729 29.6689 23.2349 29.6689 23.9282C29.6689 24.6216 30.2304 25.1836 30.9231 25.1836Z" fill="white"/>
<path d="M24.9231 35.3374C25.6158 35.3374 26.1773 34.7754 26.1773 34.082C26.1773 33.3887 25.6158 32.8267 24.9231 32.8267C24.2304 32.8267 23.6689 33.3887 23.6689 34.082C23.6689 34.7754 24.2304 35.3374 24.9231 35.3374Z" fill="white"/>
<path d="M18.4615 25.1836C19.1542 25.1836 19.7158 24.6216 19.7158 23.9282C19.7158 23.2349 19.1542 22.6729 18.4615 22.6729C17.7689 22.6729 17.2073 23.2349 17.2073 23.9282C17.2073 24.6216 17.7689 25.1836 18.4615 25.1836Z" fill="white"/>
<path d="M24.923 34.442V37.6728" stroke="white" stroke-width="0.5" stroke-linecap="square"/>
<path d="M14.6373 30.4036C15.5007 30.5946 20.1394 33.402 25.3571 34.5925L35.2088 30.4036" stroke="white" stroke-width="0.5"/>
</g>
</g>
<defs>
<clipPath id="clip0_2443_49918">
<path d="M0 24.5189C0 11.2641 10.7452 0.518921 24 0.518921C37.2548 0.518921 48 11.2641 48 24.5189C48 37.7738 37.2548 48.5189 24 48.5189C10.7452 48.5189 0 37.7738 0 24.5189Z" fill="white"/>
</clipPath>
</defs>
</svg>
