<svg xmlns="http://www.w3.org/2000/svg" width="49" height="48" viewBox="0 0 49 48" fill="none">
<rect x="0.5" width="48" height="48" rx="16" fill="#16182D"/>
<path fill-rule="evenodd" clip-rule="evenodd" d="M24.5 38C16.768 38 10.5 31.732 10.5 24C10.5 16.268 16.768 10 24.5 10C32.232 10 38.5 16.268 38.5 24C38.5 31.732 32.232 38 24.5 38ZM25.1054 20.5065C23.8515 21.028 21.3455 22.1074 17.5874 23.7448C16.9772 23.9874 16.6575 24.2248 16.6284 24.457C16.5792 24.8493 17.0705 25.0038 17.7395 25.2142C17.8305 25.2428 17.9248 25.2724 18.0215 25.3038C18.6797 25.5178 19.5651 25.7681 20.0254 25.7781C20.4429 25.7871 20.9089 25.6149 21.4234 25.2617C24.9347 22.8914 26.7472 21.6934 26.861 21.6676C26.9413 21.6494 27.0526 21.6264 27.128 21.6934C27.2033 21.7604 27.1959 21.8873 27.1879 21.9214C27.1393 22.1288 25.2108 23.9218 24.2128 24.8496C23.9016 25.1389 23.6809 25.344 23.6358 25.3909C23.5348 25.4959 23.4318 25.5952 23.3328 25.6906C22.7213 26.2801 22.2627 26.7221 23.3581 27.444C23.8846 27.7909 24.3058 28.0778 24.7261 28.364C25.185 28.6765 25.6428 28.9883 26.2351 29.3765C26.386 29.4754 26.5301 29.5782 26.6704 29.6782C27.2046 30.059 27.6844 30.4011 28.2772 30.3465C28.6217 30.3148 28.9775 29.9909 29.1582 29.0249C29.5853 26.7418 30.4248 21.7951 30.6188 19.7567C30.6358 19.5781 30.6144 19.3495 30.5972 19.2492C30.58 19.1488 30.5442 19.0059 30.4137 18.9001C30.2593 18.7747 30.0208 18.7483 29.9142 18.7501C29.4293 18.7587 28.6854 19.0174 25.1054 20.5065Z" fill="white"/>
</svg>