<svg xmlns="http://www.w3.org/2000/svg" width="49" height="48" viewBox="0 0 49 48" fill="none">
<rect x="0.5" width="48" height="48" rx="16" fill="#16182D"/>
<path d="M19.2955 34.875C29.862 34.875 35.6423 26.457 35.6423 19.1696C35.6423 18.934 35.6423 18.6951 35.6318 18.4595C36.7572 17.6763 37.7284 16.7065 38.5 15.5957C37.4488 16.0414 36.3349 16.3351 35.1943 16.4673C36.3956 15.7769 37.2955 14.6904 37.7265 13.41C36.5977 14.053 35.3622 14.5044 34.0742 14.7443C33.2083 13.8577 32.0625 13.2702 30.8142 13.0731C29.5659 12.876 28.2847 13.0801 27.1693 13.6539C26.0539 14.2277 25.1664 15.1391 24.6443 16.247C24.1222 17.3549 23.9946 18.5974 24.2812 19.7821C21.997 19.6719 19.7624 19.1014 17.7223 18.1074C15.6822 17.1135 13.8822 15.7183 12.439 14.0124C11.7063 15.2291 11.4828 16.6682 11.8136 18.0377C12.1445 19.4071 13.005 20.6041 14.2205 21.3856C13.3097 21.3558 12.4189 21.1207 11.62 20.6991V20.7748C11.6216 22.0493 12.0808 23.2843 12.92 24.2708C13.7593 25.2574 14.9271 25.9351 16.226 26.1894C15.733 26.32 15.2237 26.3851 14.7123 26.3829C14.3517 26.384 13.9919 26.3519 13.6377 26.287C14.0049 27.3842 14.7197 28.3435 15.6822 29.0305C16.6446 29.7175 17.8065 30.0979 19.005 30.1183C16.969 31.6558 14.4539 32.4897 11.865 32.4857C11.4088 32.4876 10.9529 32.4623 10.5 32.41C13.1276 34.0207 16.1793 34.876 19.2955 34.875Z" fill="white"/>
</svg>