<svg xmlns:xlink="http://www.w3.org/1999/xlink" xmlns="http://www.w3.org/2000/svg" width="172" height="46" viewBox="0 0 172 46" fill="none">
<g clip-path="url(#clip0_1141_33568)">
<path d="M115.106 10.6415L114.215 15.0507C113.664 17.8065 115.275 20.435 117.861 20.9862C120.448 21.4949 122.991 19.7143 123.543 17.0009L124.433 12.5917C124.984 9.83594 123.373 7.20737 120.787 6.65622C118.201 6.10507 115.657 7.88571 115.106 10.6415Z" fill="#EE4593"/>
<path d="M38.1993 0H47.7384L44.3891 16.2802C44.3891 16.2802 43.9652 20.223 40.4463 20.9014C36.9274 21.5797 35.6131 19.3751 35.6131 19.3751C35.6131 19.3751 34.426 17.9336 35.4011 14.33L38.1993 0Z" fill="#44C1D9"/>
<path d="M56.0058 1.48011e-05L52.7837 15.941C52.4445 17.6793 51.8086 19.4175 50.9183 20.9438C50.0704 22.4277 48.8409 24.0387 47.2298 24.9714C43.4989 27.1761 41.9727 27.5576 41.9727 27.5576H58.2104C58.2104 27.5576 60.4151 18.1456 61.263 12.2102L69.9966 27.5152H77.4584L82.9699 -0.0847778H75.0842L72.0316 15.2627L63.2556 1.48011e-05H56.0058Z" fill="#4250A2"/>
<path d="M97.0456 27.5152L104.55 27.6C104.635 27.1336 104.762 26.6249 104.889 25.8617C105.016 25.3106 105.143 24.6322 105.186 24.4203C105.61 22.2157 105.949 20.6894 106.585 17.4249L107.899 11.1078C108.281 9.19999 109.044 7.24976 110.019 5.72349C110.74 4.5364 111.63 3.43409 112.902 2.28939C114.598 0.763126 116.124 0.0423889 116.124 0.0423889H109.976H102.091L99.0382 15.4746L90.6861 0.0847852L88.2695 12.2949" fill="#259FB0"/>
<path d="M171.832 0H164.371L158.35 15.3475L156.697 0H149.108L139.06 15.3475L141.604 0H134.142C133.888 1.27189 133.803 1.78065 133.506 3.13733C133.379 3.73088 133.294 4.11244 133.294 4.19723C132.701 7.20737 132.531 7.97051 132.065 10.3871L131.089 15.2627C130.793 16.6194 130.581 17.8488 130.114 19.0783C129.733 20.0111 129.309 21.071 128.63 22.0461C127.698 23.4452 126.935 24.4627 125.62 25.5226C124.009 26.8369 123.246 27.2184 122.525 27.6L128.715 27.5576H133.718H141.18L150.168 12.2949C151.058 18.2304 152.966 27.6 152.966 27.6H156.782H160.428L171.832 0Z" fill="#010101"/>
<path d="M27.5152 11.7014L29.9742 0H5.51152L0 27.6H8.0977L9.66636 19.9263H13.8212L16.2378 27.6H25.4378L21.4949 18.824C21.4949 18.824 26.2009 17.2129 27.5152 11.7014ZM16.2378 13.8212H10.5567L12.1253 6.14747H20.9014C20.9014 6.14747 20.647 13.8212 16.2378 13.8212Z" fill="#F37A8E"/>
<path d="M13.8213 19.9263L16.2379 27.6H25.4379L21.495 18.824C21.495 18.824 26.201 17.1705 27.5153 11.7014L29.9743 0" fill="#44C1D9"/>
<path d="M29.9318 0H5.51152L0 27.5576L14.9659 13.8212H10.5567L12.1253 6.14747H20.9014" fill="#318CCC"/>
<path d="M5.51152 0L0 27.5576L14.9659 13.8212H10.5567L12.1253 6.14747" fill="#4250A2"/>
<path d="M45.7034 9.92074L47.7384 0H38.1992L45.7034 9.92074Z" fill="#EE4593"/>
<path d="M45.4066 11.3198L35.8251 12.1254L35.4011 14.33C34.426 17.9336 35.6131 19.3751 35.6131 19.3751C35.6131 19.3751 36.9274 21.5797 40.4463 20.9014C43.9652 20.223 44.3891 16.2802 44.3891 16.2802L45.4066 11.3198Z" fill="#259FB0"/>
<path d="M59.3551 22.4276L52.7837 15.941C52.4445 17.6793 51.8086 19.4175 50.9183 20.9438C50.0704 22.4276 48.8409 24.0387 47.2298 24.9714C43.4989 27.176 41.9727 27.5576 41.9727 27.5576H58.2104C58.2104 27.6 58.7192 25.3954 59.3551 22.4276Z" fill="#44C1D9"/>
<path d="M66.2652 5.29954L63.2551 0H56.0053L52.7832 15.941L66.2652 5.29954Z" fill="#F6A6B7"/>
<path d="M72.031 15.3899L66.2651 5.29953L60.0752 10.1751L69.9959 27.6H77.4577L79.8319 15.6866L72.031 15.3899Z" fill="#F37A8E"/>
<path d="M78.8995 20.4774L82.9695 0H75.0838L72.0312 15.3899L77.458 27.6L78.8995 20.4774Z" fill="#318CCC"/>
<path d="M90.6861 0L88.2695 12.2949L97.0456 27.6H104.55L98.9958 15.3475L90.6861 0Z" fill="#44C1D9"/>
<path d="M107.898 11.0654L98.9951 15.3899L104.549 27.6L107.898 11.0654Z" fill="#4250A2"/>
<path d="M164.328 0L158.307 15.3475L156.696 0H149.107L150.167 12.2949C151.058 18.2304 152.965 27.6 152.965 27.6H156.781H160.427L171.832 0H164.328Z" fill="#4250A2"/>
<path d="M156.697 0H149.108L139.06 15.3475L141.604 0H134.142C133.888 1.27189 133.803 1.78065 133.506 3.13733C133.379 3.73088 133.294 4.11244 133.294 4.19723C132.701 7.20737 132.531 7.97051 132.065 10.3871L131.09 15.2627C130.793 16.6194 130.581 17.8488 130.115 19.0783C129.733 20.0111 129.309 21.071 128.631 22.0461C127.698 23.4452 126.935 24.4627 125.578 25.5226C123.967 26.8369 123.204 27.2184 122.483 27.6L128.673 27.5576H133.676H141.138L150.168 12.2949L156.697 0Z" fill="#F37A8E"/>
<path d="M141.604 0H134.142C133.888 1.27189 133.803 1.78065 133.506 3.13733C133.379 3.73088 133.294 4.11244 133.294 4.19723C132.701 7.20737 132.531 7.97051 132.065 10.3871L131.09 15.2627C130.793 16.6194 130.581 17.8488 130.115 19.0783C129.733 20.0111 129.309 21.071 128.631 22.0461C127.698 23.4452 126.935 24.4627 125.578 25.5226C123.967 26.8369 123.204 27.2184 122.483 27.6L128.673 27.5576H133.676H141.138L139.06 15.3475L141.604 0Z" fill="#F6A6B7"/>
<path d="M164.328 0L158.35 15.3475L152.966 27.6H156.781H160.428L171.832 0H164.328Z" fill="#318CCC"/>
<path d="M158.35 15.3475L152.966 27.6H156.781H160.428L168.652 7.63135L158.35 15.3475Z" fill="#259FB0"/>
<path d="M131.599 12.6765L131.09 15.2627C130.793 16.6193 130.581 17.8488 130.115 19.0783C129.733 20.011 129.309 21.071 128.631 22.0461C127.698 23.4451 126.935 24.4627 125.578 25.5226C123.967 26.8368 123.204 27.2184 122.483 27.6L128.673 27.5576H133.676H141.138L131.599 12.6765Z" fill="#318CCC"/>
<path d="M141.604 0H134.142C133.888 1.27189 133.803 1.78065 133.506 3.13733C133.379 3.73088 133.294 4.11244 133.294 4.19723C132.7 7.20737 132.531 7.97051 132.064 10.3871L131.089 15.2627C130.793 16.6194 130.581 17.8488 130.114 19.0783L141.604 0Z" fill="#44C1D9"/>
<path d="M124.433 12.5493C124.984 9.79355 123.373 7.16497 120.787 6.61382C118.201 6.10507 115.657 7.88571 115.106 10.5991L114.216 15.0083C114.089 15.6866 114.089 16.3226 114.173 16.9585L124.433 12.5493Z" fill="#F37A8E"/>
<path d="M117.649 7.12259C116.378 7.80093 115.402 9.07282 115.106 10.6415L114.215 15.0507C113.664 17.8065 115.275 20.435 117.861 20.9862C118.285 21.071 118.667 21.1134 119.091 21.071L117.649 7.12259Z" fill="#318CCC"/>
<path d="M21.2832 38.5806H22.6399L24.9293 42.0995L27.1763 38.5806H28.5754V46H27.2611V40.7004L24.9293 44.1769H24.8869L22.5551 40.7004V46H21.2832V38.5806Z" fill="white"/>
<path d="M35.4434 42.1843C35.4434 40.1069 37.0544 38.3263 39.3438 38.3263C41.6332 38.3263 43.2019 40.0645 43.2019 42.1419C43.2019 44.2194 41.5908 45.9576 39.3014 45.9576C37.0544 46 35.4434 44.3041 35.4434 42.1843ZM41.8452 42.1843C41.8452 40.7429 40.8277 39.5134 39.3438 39.5134C37.86 39.5134 36.8424 40.7005 36.8424 42.1419C36.8424 43.5834 37.86 44.7705 39.3438 44.7705C40.8277 44.8129 41.8452 43.6258 41.8452 42.1843Z" fill="white"/>
<path d="M49.0098 38.5382H50.4512L52.6982 44.2193L54.9453 38.5382H56.3443L53.2494 46H52.1047L49.0098 38.5382Z" fill="white"/>
<path d="M62.916 38.5806H68.4275V39.7677H64.2303V41.6756H67.9612V42.8627H64.2303V44.8553H68.4699V46H62.916V38.5806Z" fill="white"/>
<path d="M87.9726 45.0249C87.3367 45.6184 86.6159 46 85.6832 46C84.3265 46 83.2666 45.1521 83.2666 43.8802C83.2666 42.9051 83.8178 42.2267 84.8353 41.8028C84.4113 41.2516 84.2417 40.7853 84.2417 40.2765C84.2417 39.3014 85.0473 38.4111 86.3615 38.4111C87.5486 38.4111 88.3118 39.2166 88.3118 40.1917V40.2341C88.3118 41.2092 87.6758 41.8028 86.7007 42.142L87.9726 43.4138C88.2694 42.9899 88.5238 42.5235 88.7781 41.9724L89.7532 42.4811C89.4565 43.0747 89.1173 43.6682 88.7357 44.177L89.8804 45.3641L88.9053 46.0424L87.9726 45.0249ZM87.2519 44.2618L85.5984 42.5659C84.9201 42.8627 84.6233 43.329 84.6233 43.7954C84.6233 44.4314 85.132 44.8553 85.8528 44.8553C86.3615 44.8977 86.8279 44.6433 87.2519 44.2618ZM87.2095 40.2341C87.2095 39.7254 86.8703 39.3862 86.3615 39.3862C85.8104 39.3862 85.4712 39.7678 85.4712 40.2765C85.4712 40.6581 85.5984 40.9125 86.0224 41.3788C86.7855 41.082 87.2095 40.7429 87.2095 40.2341Z" fill="white"/>
<path d="M105.016 38.5806H110.527V39.7677H106.288V41.6756H110.018V42.8627H106.288V44.8553H110.57V46H105.016V38.5806Z" fill="white"/>
<path d="M120.067 38.5382H121.296L124.561 46H123.162L122.398 44.2193H118.88L118.116 46H116.76L120.067 38.5382ZM121.932 43.0746L120.66 40.1069L119.388 43.0746H121.932Z" fill="white"/>
<path d="M131.09 38.5806H134.397C135.329 38.5806 136.05 38.8774 136.559 39.3438C136.941 39.7677 137.195 40.3189 137.195 40.9548V40.9972C137.195 42.2267 136.474 42.9898 135.414 43.2442L137.407 46.0424H135.881L134.058 43.4562H132.404V46.0424H131.09V38.5806ZM134.312 42.2691C135.245 42.2691 135.838 41.8028 135.838 41.0396C135.838 40.2341 135.287 39.8101 134.312 39.8101H132.404V42.3115H134.312V42.2691Z" fill="white"/>
<path d="M144.105 38.5806H145.293L149.278 43.7106V38.5806H150.55V46H149.447L145.377 40.7428V46H144.105V38.5806Z" fill="white"/>
</g>
<defs>
<clipPath id="clip0_1141_33568">
<rect width="171.832" height="46" fill="white"/>
</clipPath>
</defs>
</svg>