<svg width="20" height="20" viewBox="0 0 20 20" fill="none" xmlns="http://www.w3.org/2000/svg">
<path d="M8.18992 8.39007C7.91128 8.41298 7.65146 8.53987 7.46204 8.74549C7.27263 8.95113 7.16748 9.22048 7.16748 9.50007C7.16748 9.77964 7.27263 10.049 7.46204 10.2546C7.65146 10.4603 7.91128 10.5871 8.18992 10.6101C8.32982 10.6043 8.46721 10.571 8.59421 10.512C8.72122 10.4531 8.83536 10.3697 8.93009 10.2666C9.02483 10.1635 9.09832 10.0427 9.14633 9.91118C9.19434 9.77965 9.21596 9.63995 9.20992 9.50007C9.21679 9.35998 9.19577 9.21992 9.14807 9.08803C9.10036 8.95614 9.02693 8.83504 8.93203 8.73177C8.83713 8.6285 8.72266 8.5451 8.59526 8.48645C8.46787 8.42779 8.33008 8.39503 8.18992 8.39007ZM11.8399 8.39007C11.6164 8.37118 11.3925 8.4202 11.1973 8.53073C11.0022 8.64124 10.8449 8.80809 10.7462 9.00945C10.6474 9.21082 10.6118 9.43729 10.6439 9.65925C10.676 9.88122 10.7743 10.0883 10.9261 10.2535C11.0778 10.4186 11.2759 10.5341 11.4944 10.5848C11.7128 10.6355 11.9415 10.619 12.1505 10.5376C12.3594 10.4562 12.5389 10.3136 12.6655 10.1285C12.7922 9.94337 12.8599 9.72433 12.8599 9.50007C12.8659 9.36017 12.8443 9.22047 12.7963 9.08894C12.7483 8.95742 12.6748 8.83664 12.58 8.73354C12.4854 8.63044 12.3712 8.54704 12.2442 8.4881C12.1172 8.42917 11.9798 8.39584 11.8399 8.39007Z" fill="#F7CE2A"/>
<path d="M16.7 0H3.30001C3.03014 0.000655811 2.76306 0.0544596 2.51398 0.158339C2.26491 0.262219 2.03873 0.41414 1.84837 0.605429C1.65801 0.796719 1.50719 1.02363 1.40452 1.2732C1.30186 1.52278 1.24935 1.79014 1.25001 2.06V15.58C1.24935 15.8499 1.30186 16.1173 1.40452 16.3668C1.50719 16.6164 1.65801 16.8432 1.84837 17.0346C2.03873 17.2259 2.26491 17.3778 2.51398 17.4816C2.76306 17.5855 3.03014 17.6394 3.30001 17.64H14.64L14.11 15.79L15.39 16.98L16.6 18.105L18.75 20V2.06C18.7506 1.79014 18.6981 1.52278 18.5955 1.2732C18.4929 1.02363 18.342 0.796719 18.1516 0.605429C17.9613 0.41414 17.7351 0.262219 17.486 0.158339C17.237 0.0544596 16.9699 0.000655811 16.7 0ZM12.84 13.06C12.84 13.06 12.48 12.625 12.18 12.25C12.9049 12.0794 13.546 11.6578 13.99 11.06C13.6301 11.2995 13.2444 11.4974 12.84 11.65C12.3748 11.8486 11.8883 11.9929 11.39 12.08C10.5336 12.2378 9.65521 12.2344 8.80001 12.07C8.29793 11.9718 7.80588 11.8278 7.33001 11.64C6.92953 11.4857 6.54723 11.2879 6.19001 11.05C6.61796 11.6353 7.23696 12.0527 7.94002 12.23C7.64002 12.605 7.27001 13.06 7.27001 13.06C6.67598 13.076 6.08712 12.9457 5.55527 12.6807C5.02341 12.4157 4.56487 12.024 4.22001 11.54C4.25247 9.51271 4.74484 7.51926 5.66001 5.71C6.46537 5.07749 7.44722 4.7106 8.47001 4.66L8.57001 4.785C7.60956 5.02394 6.71339 5.47116 5.94501 6.095C5.94501 6.095 6.16501 5.97 6.53501 5.805C7.25411 5.47861 8.02019 5.26769 8.80501 5.18C8.86099 5.16841 8.91787 5.16172 8.97501 5.16C9.64288 5.0681 10.3193 5.05635 10.99 5.125C12.0464 5.24564 13.0689 5.57176 14 6.085C13.2689 5.49196 12.4201 5.0608 11.51 4.82L11.65 4.66C12.6728 4.7106 13.6546 5.07749 14.46 5.71C15.3751 7.51926 15.8675 9.51271 15.9 11.54C15.5524 12.0235 15.0919 12.4147 14.5585 12.6796C14.0253 12.9445 13.4353 13.0751 12.84 13.06Z" fill="#F7CE2A"/>
</svg>
