<svg width="1440" height="691" viewBox="0 0 1440 691" fill="none" xmlns="http://www.w3.org/2000/svg">
<g clip-path="url(#clip0)">
<g opacity="0.8" clip-path="url(#clip1)">
<g opacity="0.42">
<path
          opacity="0.42"
          d="M1435.24 83.3495L819.829 729.775L821.559 729.883L1436.97 83.3495H1435.24Z"
          fill="white"
          fill-opacity="0.5"
        />
<path
          opacity="0.42"
          d="M1436.75 100.526V102.47L838.864 730.316H837.134L1436.75 100.526Z"
          fill="white"
          fill-opacity="0.5"
        />
<path
          opacity="0.42"
          d="M1436.43 119.646V121.483L856.277 730.856H854.547L1436.43 119.646Z"
          fill="white"
          fill-opacity="0.5"
        />
<path
          opacity="0.42"
          d="M1436.11 138.659V140.603L873.691 731.396L871.96 731.288L1436.11 138.659Z"
          fill="white"
          fill-opacity="0.5"
        />
<path
          opacity="0.42"
          d="M1435.89 157.671L1435.78 159.616L890.996 731.828H889.265L1435.89 157.671Z"
          fill="white"
          fill-opacity="0.5"
        />
<path
          opacity="0.42"
          d="M1435.56 176.792L1435.46 178.736L908.409 732.368L906.679 732.26L1435.56 176.792Z"
          fill="white"
          fill-opacity="0.5"
        />
<path
          opacity="0.42"
          d="M1435.24 195.804V197.749L925.822 732.8H924.092L1435.24 195.804Z"
          fill="white"
          fill-opacity="0.5"
        />
<path
          opacity="0.42"
          d="M1434.92 214.925V216.761L943.127 733.34L941.397 733.232L1434.92 214.925Z"
          fill="white"
          fill-opacity="0.5"
        />
<path
          opacity="0.42"
          d="M1434.59 233.937V235.882L960.541 733.772H958.81L1434.59 233.937Z"
          fill="white"
          fill-opacity="0.5"
        />
<path
          opacity="0.42"
          d="M1434.38 253.058L1434.27 254.894L977.845 734.313H976.115L1434.38 253.058Z"
          fill="white"
          fill-opacity="0.5"
        />
<path
          opacity="0.42"
          d="M1434.05 272.071V274.015L995.259 734.853L993.529 734.745L1434.05 272.071Z"
          fill="white"
          fill-opacity="0.5"
        />
<path
          opacity="0.42"
          d="M1433.73 291.083V293.027L1012.67 735.285H1010.94L1433.73 291.083Z"
          fill="white"
          fill-opacity="0.5"
        />
<path
          opacity="0.42"
          d="M1433.4 310.203V312.148L1029.98 735.825L1028.25 735.717L1433.4 310.203Z"
          fill="white"
          fill-opacity="0.5"
        />
<path
          opacity="0.42"
          d="M1433.08 329.216V331.161L1047.39 736.257H1045.66L1433.08 329.216Z"
          fill="white"
          fill-opacity="0.5"
        />
<path
          opacity="0.42"
          d="M1432.86 348.337L1432.75 350.281L1064.8 736.797H1063.07L1432.86 348.337Z"
          fill="white"
          fill-opacity="0.5"
        />
<path
          opacity="0.42"
          d="M1432.54 367.349V369.294L1082.11 737.337L1080.38 737.229L1432.54 367.349Z"
          fill="white"
          fill-opacity="0.5"
        />
<path
          opacity="0.42"
          d="M1432.21 386.47V388.306L1099.52 737.77H1097.79L1432.21 386.47Z"
          fill="white"
          fill-opacity="0.5"
        />
<path
          opacity="0.42"
          d="M1431.89 405.482V407.427L1116.83 738.31L1115.1 738.202L1431.89 405.482Z"
          fill="white"
          fill-opacity="0.5"
        />
<path
          opacity="0.42"
          d="M1431.56 424.603V426.439L1134.24 738.742H1132.51L1431.56 424.603Z"
          fill="white"
          fill-opacity="0.5"
        />
<path
          opacity="0.42"
          d="M1431.35 443.615L1431.24 445.56L1151.65 739.282L1149.92 739.174L1431.35 443.615Z"
          fill="white"
          fill-opacity="0.5"
        />
<path
          opacity="0.42"
          d="M1431.02 462.628V464.572L1168.96 739.714H1167.23L1431.02 462.628Z"
          fill="white"
          fill-opacity="0.5"
        />
<path
          opacity="0.42"
          d="M1430.7 481.748V483.585L1186.37 740.254H1184.64L1430.7 481.748Z"
          fill="white"
          fill-opacity="0.5"
        />
<path
          opacity="0.42"
          d="M1430.37 500.761V502.705L1203.78 740.794L1202.05 740.686L1430.37 500.761Z"
          fill="white"
          fill-opacity="0.5"
        />
<path
          opacity="0.42"
          d="M1430.16 519.881L1430.05 521.718L1221.09 741.226H1219.36L1430.16 519.881Z"
          fill="white"
          fill-opacity="0.5"
        />
<path
          opacity="0.42"
          d="M1429.83 538.894L1429.72 540.838L1238.5 741.766L1236.77 741.658L1429.83 538.894Z"
          fill="white"
          fill-opacity="0.5"
        />
<path
          opacity="0.42"
          d="M1429.51 558.015V559.851L1255.81 742.198H1254.08L1429.51 558.015Z"
          fill="white"
          fill-opacity="0.5"
        />
<path
          opacity="0.42"
          d="M1429.18 577.027V578.972L1273.22 742.739L1271.49 742.631L1429.18 577.027Z"
          fill="white"
          fill-opacity="0.5"
        />
<path
          opacity="0.42"
          d="M1428.86 596.04V597.984L1290.63 743.171H1288.9L1428.86 596.04Z"
          fill="white"
          fill-opacity="0.5"
        />
<path
          opacity="0.42"
          d="M1428.64 615.16L1428.53 616.997L1307.94 743.711H1306.21L1428.64 615.16Z"
          fill="white"
          fill-opacity="0.5"
        />
<path
          opacity="0.42"
          d="M1428.32 634.173L1428.21 636.117L1325.35 744.251L1323.62 744.143L1428.32 634.173Z"
          fill="white"
          fill-opacity="0.5"
        />
<path
          opacity="0.42"
          d="M1427.99 653.293V655.13L1342.66 744.683H1340.93L1427.99 653.293Z"
          fill="white"
          fill-opacity="0.5"
        />
<path
          opacity="0.42"
          d="M1427.67 672.306V674.25L1360.07 745.223L1358.34 745.115L1427.67 672.306Z"
          fill="white"
          fill-opacity="0.5"
        />
</g>
<g opacity="0.42">
<path
          opacity="0.42"
          d="M657.053 -154.847L-6.38066 442.535V440.807L657.053 -156.576V-154.847Z"
          fill="white"
          fill-opacity="0.5"
        />
<path
          opacity="0.42"
          d="M639.856 -156.684L637.909 -156.792L-6.38066 423.523V425.251L639.856 -156.684Z"
          fill="white"
          fill-opacity="0.5"
        />
<path
          opacity="0.42"
          d="M620.712 -156.9H618.765L-6.38066 406.131V407.859L620.712 -156.9Z"
          fill="white"
          fill-opacity="0.5"
        />
<path
          opacity="0.42"
          d="M601.675 -157.116H599.728L-6.48991 388.738V390.467L601.675 -157.116Z"
          fill="white"
          fill-opacity="0.5"
        />
<path
          opacity="0.42"
          d="M582.532 -157.332H580.693L-6.48991 371.454V373.183L582.532 -157.332Z"
          fill="white"
          fill-opacity="0.5"
        />
<path
          opacity="0.42"
          d="M563.496 -157.548H561.549L-6.48991 354.062V355.79L563.496 -157.548Z"
          fill="white"
          fill-opacity="0.5"
        />
<path
          opacity="0.42"
          d="M544.353 -157.764H542.514L-6.59795 336.67V338.398L544.353 -157.764Z"
          fill="white"
          fill-opacity="0.5"
        />
<path
          opacity="0.42"
          d="M525.317 -157.98H523.37L-6.59795 319.386V321.114L525.317 -157.98Z"
          fill="white"
          fill-opacity="0.5"
        />
<path
          opacity="0.42"
          d="M506.281 -158.196H504.334L-6.59795 301.994V303.722L506.281 -158.196Z"
          fill="white"
          fill-opacity="0.5"
        />
<path
          opacity="0.42"
          d="M487.138 -158.304L485.191 -158.412L-6.70601 284.602V286.33L487.138 -158.304Z"
          fill="white"
          fill-opacity="0.5"
        />
<path
          opacity="0.42"
          d="M468.102 -158.52L466.155 -158.628L-6.70601 267.209V268.938L468.102 -158.52Z"
          fill="white"
          fill-opacity="0.5"
        />
<path
          opacity="0.42"
          d="M448.958 -158.736H447.12L-6.70601 249.925V251.654L448.958 -158.736Z"
          fill="white"
          fill-opacity="0.5"
        />
<path
          opacity="0.42"
          d="M429.922 -158.952H427.975L-6.81541 232.533V234.261L429.922 -158.952Z"
          fill="white"
          fill-opacity="0.5"
        />
<path
          opacity="0.42"
          d="M410.778 -159.168H408.939L-6.81541 215.141V216.869L410.778 -159.168Z"
          fill="white"
          fill-opacity="0.5"
        />
<path
          opacity="0.42"
          d="M391.742 -159.384H389.795L-6.81541 197.857V199.585L391.742 -159.384Z"
          fill="white"
          fill-opacity="0.5"
        />
<path
          opacity="0.42"
          d="M372.599 -159.6H370.76L-6.9232 180.465V182.193L372.599 -159.6Z"
          fill="white"
          fill-opacity="0.5"
        />
<path
          opacity="0.42"
          d="M353.563 -159.816H351.616L-6.9232 163.072V164.801L353.563 -159.816Z"
          fill="white"
          fill-opacity="0.5"
        />
<path
          opacity="0.42"
          d="M334.528 -160.032H332.581L-6.9232 145.788V147.517L334.528 -160.032Z"
          fill="white"
          fill-opacity="0.5"
        />
<path
          opacity="0.42"
          d="M315.384 -160.14L313.545 -160.248L-6.9232 128.396V130.125L315.384 -160.14Z"
          fill="white"
          fill-opacity="0.5"
        />
<path
          opacity="0.42"
          d="M296.349 -160.357L294.402 -160.465L-7.03096 111.004V112.733L296.349 -160.357Z"
          fill="white"
          fill-opacity="0.5"
        />
<path
          opacity="0.42"
          d="M277.205 -160.573H275.366L-7.03096 93.72V95.4484L277.205 -160.573Z"
          fill="white"
          fill-opacity="0.5"
        />
<path
          opacity="0.42"
          d="M258.169 -160.789H256.222L-7.03096 76.3279V78.0563L258.169 -160.789Z"
          fill="white"
          fill-opacity="0.5"
        />
<path
          opacity="0.42"
          d="M239.026 -161.005H237.187L-7.13878 58.9357V60.6641L239.026 -161.005Z"
          fill="white"
          fill-opacity="0.5"
        />
<path
          opacity="0.42"
          d="M219.99 -161.221H218.044L-7.13878 41.5435V43.38L219.99 -161.221Z"
          fill="white"
          fill-opacity="0.5"
        />
<path
          opacity="0.42"
          d="M200.847 -161.437H199.008L-7.13878 24.2595V25.9879L200.847 -161.437Z"
          fill="white"
          fill-opacity="0.5"
        />
<path
          opacity="0.42"
          d="M181.811 -161.653H179.865L-7.24657 6.86735V8.59577L181.811 -161.653Z"
          fill="white"
          fill-opacity="0.5"
        />
</g>
<g opacity="0.43">
<g opacity="0.43">
<path
            opacity="0.68"
            d="M1012.46 287.41L831.834 107.007C821.343 96.5287 821.343 79.3527 831.834 68.8742L1012.46 -111.529C1022.95 -122.007 1040.14 -122.007 1050.64 -111.529L1231.26 68.8742C1241.75 79.3527 1241.75 96.5287 1231.26 107.007L1050.64 287.41C1040.14 297.889 1023.06 297.889 1012.46 287.41Z"
            fill="url(#paint0_radial)"
            stroke="url(#paint1_radial)"
            stroke-width="0.75"
            stroke-miterlimit="10"
          />
<path
            opacity="0.43"
            d="M1012.46 287.41L831.834 107.007C821.343 96.5287 821.343 79.3527 831.834 68.8742L1012.46 -111.529C1022.95 -122.007 1040.14 -122.007 1050.64 -111.529L1231.26 68.8742C1241.75 79.3527 1241.75 96.5287 1231.26 107.007L1050.64 287.41C1040.14 297.889 1023.06 297.889 1012.46 287.41Z"
            stroke="url(#paint2_linear)"
            stroke-width="0.75"
            stroke-miterlimit="10"
          />
</g>
<g opacity="0.43">
<path
            opacity="0.68"
            d="M1000.67 517.721L820.045 337.318C809.554 326.839 809.554 309.663 820.045 299.185L1000.67 118.782C1011.16 108.303 1028.35 108.303 1038.85 118.782L1219.47 299.185C1229.96 309.663 1229.96 326.839 1219.47 337.318L1038.85 517.721C1028.35 528.307 1011.27 528.307 1000.67 517.721Z"
            fill="url(#paint3_radial)"
            stroke="url(#paint4_radial)"
            stroke-width="0.75"
            stroke-miterlimit="10"
          />
<path
            opacity="0.43"
            d="M1000.67 517.721L820.045 337.318C809.554 326.839 809.554 309.663 820.045 299.185L1000.67 118.782C1011.16 108.303 1028.35 108.303 1038.85 118.782L1219.47 299.185C1229.96 309.663 1229.96 326.839 1219.47 337.318L1038.85 517.721C1028.35 528.307 1011.27 528.307 1000.67 517.721Z"
            stroke="url(#paint5_linear)"
            stroke-width="0.75"
            stroke-miterlimit="10"
          />
</g>
<g opacity="0.43">
<path
            opacity="0.68"
            d="M1231.26 505.946L1050.64 325.543C1040.14 315.065 1040.14 297.889 1050.64 287.41L1231.26 107.007C1241.75 96.5287 1258.95 96.5287 1269.44 107.007L1450.06 287.41C1460.55 297.889 1460.55 315.065 1450.06 325.543L1269.44 505.946C1258.95 516.425 1241.86 516.425 1231.26 505.946Z"
            fill="url(#paint6_radial)"
            stroke="url(#paint7_radial)"
            stroke-width="0.75"
            stroke-miterlimit="10"
          />
<path
            opacity="0.43"
            d="M1231.26 505.946L1050.64 325.543C1040.14 315.065 1040.14 297.889 1050.64 287.41L1231.26 107.007C1241.75 96.5287 1258.95 96.5287 1269.44 107.007L1450.06 287.41C1460.55 297.889 1460.55 315.065 1450.06 325.543L1269.44 505.946C1258.95 516.425 1241.86 516.425 1231.26 505.946Z"
            stroke="url(#paint8_linear)"
            stroke-width="0.75"
            stroke-miterlimit="10"
          />
</g>
<g opacity="0.43">
<path
            opacity="0.68"
            d="M1339.2 179.6L1158.58 -0.802538C1148.08 -11.281 1148.08 -28.4571 1158.58 -38.9356L1339.2 -219.339C1349.69 -229.817 1366.89 -229.817 1377.38 -219.339L1558 -38.9356C1568.49 -28.4571 1568.49 -11.281 1558 -0.802538L1377.38 179.6C1366.89 190.079 1349.8 190.079 1339.2 179.6Z"
            fill="url(#paint9_radial)"
            stroke="url(#paint10_radial)"
            stroke-width="0.75"
            stroke-miterlimit="10"
          />
<path
            opacity="0.43"
            d="M1339.2 179.6L1158.58 -0.802538C1148.08 -11.281 1148.08 -28.4571 1158.58 -38.9356L1339.2 -219.339C1349.69 -229.817 1366.89 -229.817 1377.38 -219.339L1558 -38.9356C1568.49 -28.4571 1568.49 -11.281 1558 -0.802538L1377.38 179.6C1366.89 190.079 1349.8 190.079 1339.2 179.6Z"
            stroke="url(#paint11_linear)"
            stroke-width="0.75"
            stroke-miterlimit="10"
          />
</g>
<g opacity="0.43">
<path
            opacity="0.68"
            d="M1694.38 381.5L1111.64 -200.542C1101.14 -211.021 1101.14 -228.197 1111.64 -238.675L1172.74 -299.71C1183.24 -310.188 1200.43 -310.188 1210.92 -299.71L1793.67 282.333C1804.16 292.811 1804.16 309.987 1793.67 320.466L1732.56 381.5C1722.07 392.087 1704.98 392.087 1694.38 381.5Z"
            fill="url(#paint12_radial)"
            stroke="url(#paint13_radial)"
            stroke-width="0.75"
            stroke-miterlimit="10"
          />
<path
            opacity="0.43"
            d="M1694.38 381.5L1111.64 -200.542C1101.14 -211.021 1101.14 -228.197 1111.64 -238.675L1172.74 -299.71C1183.24 -310.188 1200.43 -310.188 1210.92 -299.71L1793.67 282.333C1804.16 292.811 1804.16 309.987 1793.67 320.466L1732.56 381.5C1722.07 392.087 1704.98 392.087 1694.38 381.5Z"
            stroke="url(#paint14_linear)"
            stroke-width="0.75"
            stroke-miterlimit="10"
          />
</g>
<g opacity="0.43">
<path
            opacity="0.68"
            d="M1518.09 465.004L789.653 -262.441C779.162 -272.919 779.162 -290.095 789.653 -300.574L850.762 -361.608C861.253 -372.087 878.45 -372.087 888.941 -361.608L1617.27 365.837C1627.76 376.315 1627.76 393.491 1617.27 403.97L1556.16 465.004C1545.67 475.591 1528.58 475.591 1518.09 465.004Z"
            fill="url(#paint15_radial)"
            stroke="url(#paint16_radial)"
            stroke-width="0.75"
            stroke-miterlimit="10"
          />
<path
            opacity="0.43"
            d="M1518.09 465.004L789.653 -262.441C779.162 -272.919 779.162 -290.095 789.653 -300.574L850.762 -361.608C861.253 -372.087 878.45 -372.087 888.941 -361.608L1617.27 365.837C1627.76 376.315 1627.76 393.491 1617.27 403.97L1556.16 465.004C1545.67 475.591 1528.58 475.591 1518.09 465.004Z"
            stroke="url(#paint17_linear)"
            stroke-width="0.75"
            stroke-miterlimit="10"
          />
</g>
<g opacity="0.43">
<path
            opacity="0.68"
            d="M1637.93 830.023L623.957 -182.718C613.466 -193.196 613.466 -210.372 623.957 -220.851L685.065 -281.885C695.556 -292.364 712.753 -292.364 723.245 -281.885L1737.21 730.856C1747.7 741.334 1747.7 758.51 1737.21 768.989L1676.11 830.023C1665.61 840.502 1648.53 840.502 1637.93 830.023Z"
            fill="url(#paint18_radial)"
            stroke="url(#paint19_radial)"
            stroke-width="0.75"
            stroke-miterlimit="10"
          />
<path
            opacity="0.43"
            d="M1637.93 830.023L623.957 -182.718C613.466 -193.196 613.466 -210.372 623.957 -220.851L685.065 -281.885C695.556 -292.364 712.753 -292.364 723.245 -281.885L1737.21 730.856C1747.7 741.334 1747.7 758.51 1737.21 768.989L1676.11 830.023C1665.61 840.502 1648.53 840.502 1637.93 830.023Z"
            stroke="url(#paint20_linear)"
            stroke-width="0.75"
            stroke-miterlimit="10"
          />
</g>
</g>
<g opacity="0.49">
<g opacity="0.49">
<path
            opacity="0.68"
            d="M425.273 372.534L605.354 552.397C615.845 562.876 615.845 579.944 605.354 590.422L425.273 770.285C414.782 780.764 397.693 780.764 387.202 770.285L207.121 590.422C196.63 579.944 196.63 562.876 207.121 552.397L387.202 372.534C397.693 362.056 414.782 362.056 425.273 372.534Z"
            fill="url(#paint21_radial)"
            stroke="url(#paint22_radial)"
            stroke-width="0.75"
            stroke-miterlimit="10"
          />
<path
            opacity="0.49"
            d="M425.273 372.534L605.354 552.397C615.845 562.876 615.845 579.944 605.354 590.422L425.273 770.285C414.782 780.764 397.693 780.764 387.202 770.285L207.121 590.422C196.63 579.944 196.63 562.876 207.121 552.397L387.202 372.534C397.693 362.056 414.782 362.056 425.273 372.534Z"
            stroke="url(#paint23_linear)"
            stroke-width="0.75"
            stroke-miterlimit="10"
          />
</g>
<g opacity="0.49">
<path
            opacity="0.49"
            d="M437.062 142.872L617.143 322.734C627.634 333.213 627.634 350.281 617.143 360.76L437.062 540.73C426.571 551.209 409.482 551.209 398.991 540.73L218.91 360.76C208.419 350.281 208.419 333.213 218.91 322.734L398.991 142.872C409.482 132.285 426.571 132.285 437.062 142.872Z"
            fill="url(#paint24_radial)"
          />
<path
            opacity="0.49"
            d="M437.062 142.872L617.143 322.734C627.634 333.213 627.634 350.281 617.143 360.76L437.062 540.73C426.571 551.209 409.482 551.209 398.991 540.73L218.91 360.76C208.419 350.281 208.419 333.213 218.91 322.734L398.991 142.872C409.482 132.285 426.571 132.285 437.062 142.872Z"
            stroke="url(#paint25_linear)"
            stroke-width="0.75"
            stroke-miterlimit="10"
          />
</g>
<g opacity="0.49">
<path
            opacity="0.68"
            d="M207.121 154.538L387.202 334.401C397.693 344.88 397.693 361.948 387.202 372.426L207.121 552.397C196.63 562.876 179.541 562.876 169.05 552.397L-11.1396 372.534C-21.6308 362.056 -21.6308 344.988 -11.1396 334.509L169.05 154.538C179.541 144.06 196.63 144.06 207.121 154.538Z"
            fill="url(#paint26_radial)"
            stroke="url(#paint27_radial)"
            stroke-width="0.75"
            stroke-miterlimit="10"
          />
<path
            opacity="0.49"
            d="M207.121 154.538L387.202 334.401C397.693 344.88 397.693 361.948 387.202 372.426L207.121 552.397C196.63 562.876 179.541 562.876 169.05 552.397L-11.1396 372.534C-21.6308 362.056 -21.6308 344.988 -11.1396 334.509L169.05 154.538C179.541 144.06 196.63 144.06 207.121 154.538Z"
            stroke="url(#paint28_linear)"
            stroke-width="0.75"
            stroke-miterlimit="10"
          />
</g>
<g opacity="0.49">
<path
            opacity="0.68"
            d="M99.5048 480.02L279.586 659.883C290.077 670.361 290.077 687.429 279.586 697.908L99.5048 877.771C89.0136 888.249 71.9248 888.249 61.4336 877.771L-118.756 698.016C-129.247 687.537 -129.247 670.469 -118.756 659.991L61.3254 480.128C71.9248 469.542 88.9054 469.541 99.5048 480.02Z"
            fill="url(#paint29_radial)"
            stroke="url(#paint30_radial)"
            stroke-width="0.75"
            stroke-miterlimit="10"
          />
<path
            opacity="0.49"
            d="M99.5048 480.02L279.586 659.883C290.077 670.361 290.077 687.429 279.586 697.908L99.5048 877.771C89.0136 888.249 71.9248 888.249 61.4336 877.771L-118.756 698.016C-129.247 687.537 -129.247 670.469 -118.756 659.991L61.3254 480.128C71.9248 469.542 88.9054 469.541 99.5048 480.02Z"
            stroke="url(#paint31_linear)"
            stroke-width="0.75"
            stroke-miterlimit="10"
          />
</g>
<g opacity="0.49">
<path
            opacity="0.68"
            d="M-254.71 278.66L326.308 858.974C336.799 869.452 336.799 886.521 326.308 896.999L265.416 957.817C254.924 968.296 237.836 968.296 227.345 957.817L-353.673 377.503C-364.165 367.025 -364.165 349.957 -353.673 339.478L-292.781 278.66C-282.29 268.181 -265.201 268.181 -254.71 278.66Z"
            fill="url(#paint32_radial)"
            stroke="url(#paint33_radial)"
            stroke-width="0.75"
            stroke-miterlimit="10"
          />
<path
            opacity="0.49"
            d="M-254.71 278.66L326.308 858.974C336.799 869.452 336.799 886.521 326.308 896.999L265.416 957.817C254.924 968.296 237.836 968.296 227.345 957.817L-353.673 377.503C-364.165 367.025 -364.165 349.957 -353.673 339.478L-292.781 278.66C-282.29 268.181 -265.201 268.181 -254.71 278.66Z"
            stroke="url(#paint34_linear)"
            stroke-width="0.75"
            stroke-miterlimit="10"
          />
</g>
<g opacity="0.49">
<path
            opacity="0.68"
            d="M-78.8456 195.372L647.427 920.765C657.918 931.244 657.918 948.312 647.427 958.79L586.535 1019.61C576.043 1030.09 558.955 1030.09 548.463 1019.61L-177.809 294.216C-188.3 283.737 -188.3 266.669 -177.809 256.191L-116.917 195.372C-106.426 184.894 -89.3368 184.894 -78.8456 195.372Z"
            fill="url(#paint35_radial)"
            stroke="url(#paint36_radial)"
            stroke-width="0.75"
            stroke-miterlimit="10"
          />
<path
            opacity="0.49"
            d="M-78.8456 195.372L647.427 920.765C657.918 931.244 657.918 948.312 647.427 958.79L586.535 1019.61C576.043 1030.09 558.955 1030.09 548.463 1019.61L-177.809 294.216C-188.3 283.737 -188.3 266.669 -177.809 256.191L-116.917 195.372C-106.426 184.894 -89.3368 184.894 -78.8456 195.372Z"
            stroke="url(#paint37_linear)"
            stroke-width="0.75"
            stroke-miterlimit="10"
          />
</g>
<g opacity="0.49">
<path
            opacity="0.68"
            d="M-198.359 -168.566L812.69 841.258C823.182 851.737 823.182 868.805 812.69 879.283L751.798 940.102C741.307 950.58 724.218 950.58 713.727 940.102L-297.322 -69.6149C-307.813 -80.0934 -307.813 -97.1614 -297.322 -107.64L-236.43 -168.458C-225.939 -179.045 -208.85 -179.045 -198.359 -168.566Z"
            fill="url(#paint38_radial)"
            stroke="url(#paint39_radial)"
            stroke-width="0.75"
            stroke-miterlimit="10"
          />
<path
            opacity="0.49"
            d="M-198.359 -168.566L812.69 841.258C823.182 851.737 823.182 868.805 812.69 879.283L751.798 940.102C741.307 950.58 724.218 950.58 713.727 940.102L-297.322 -69.6149C-307.813 -80.0934 -307.813 -97.1614 -297.322 -107.64L-236.43 -168.458C-225.939 -179.045 -208.85 -179.045 -198.359 -168.566Z"
            stroke="url(#paint40_linear)"
            stroke-width="0.75"
            stroke-miterlimit="10"
          />
</g>
</g>
</g>
</g>
<defs>
<radialGradient
      id="paint0_radial"
      cx="0"
      cy="0"
      r="1"
      gradientUnits="userSpaceOnUse"
      gradientTransform="translate(1029.78 -148.887) scale(342.533 342.118)"
    >
<stop stop-color="#000044" />
<stop offset="0.0869039" stop-color="#070749" stop-opacity="0.9131" />
<stop offset="0.2169" stop-color="#1C1C58" stop-opacity="0.7831" />
<stop offset="0.3739" stop-color="#3D3D71" stop-opacity="0.6261" />
<stop offset="0.552" stop-color="#6C6C93" stop-opacity="0.448" />
<stop offset="0.7478" stop-color="#A7A7BF" stop-opacity="0.2522" />
<stop offset="0.9555" stop-color="#EFEFF3" stop-opacity="0.0445192" />
<stop offset="1" stop-color="white" stop-opacity="0" />
</radialGradient>
<radialGradient
      id="paint1_radial"
      cx="0"
      cy="0"
      r="1"
      gradientUnits="userSpaceOnUse"
      gradientTransform="translate(1031.56 87.8894) scale(208.048 207.796)"
    >
<stop stop-color="#231F20" />
<stop offset="1" stop-color="white" />
</radialGradient>
<linearGradient id="paint2_linear" x1="823.512" y1="87.8894" x2="1239.61" y2="87.8894" gradientUnits="userSpaceOnUse">
<stop offset="0.0027027" stop-opacity="0" />
<stop offset="0.5189" stop-color="#E56AFF" />
<stop offset="1" stop-color="#231F20" stop-opacity="0" />
</linearGradient>
<radialGradient
      id="paint3_radial"
      cx="0"
      cy="0"
      r="1"
      gradientUnits="userSpaceOnUse"
      gradientTransform="translate(1017.98 81.4591) scale(342.533 342.118)"
    >
<stop stop-color="#000044" />
<stop offset="0.0869039" stop-color="#070749" stop-opacity="0.9131" />
<stop offset="0.2169" stop-color="#1C1C58" stop-opacity="0.7831" />
<stop offset="0.3739" stop-color="#3D3D71" stop-opacity="0.6261" />
<stop offset="0.552" stop-color="#6C6C93" stop-opacity="0.448" />
<stop offset="0.7478" stop-color="#A7A7BF" stop-opacity="0.2522" />
<stop offset="0.9555" stop-color="#EFEFF3" stop-opacity="0.0445192" />
<stop offset="1" stop-color="white" stop-opacity="0" />
</radialGradient>
<radialGradient
      id="paint4_radial"
      cx="0"
      cy="0"
      r="1"
      gradientUnits="userSpaceOnUse"
      gradientTransform="translate(1019.76 318.236) scale(208.048 207.796)"
    >
<stop stop-color="#231F20" />
<stop offset="1" stop-color="white" />
</radialGradient>
<linearGradient id="paint5_linear" x1="811.712" y1="318.236" x2="1227.81" y2="318.236" gradientUnits="userSpaceOnUse">
<stop offset="0.0027027" stop-opacity="0" />
<stop offset="0.5189" stop-color="#E56AFF" />
<stop offset="1" stop-color="#231F20" stop-opacity="0" />
</linearGradient>
<radialGradient
      id="paint6_radial"
      cx="0"
      cy="0"
      r="1"
      gradientUnits="userSpaceOnUse"
      gradientTransform="translate(1248.61 69.6737) scale(342.533 342.118)"
    >
<stop stop-color="#000044" />
<stop offset="0.0869039" stop-color="#070749" stop-opacity="0.9131" />
<stop offset="0.2169" stop-color="#1C1C58" stop-opacity="0.7831" />
<stop offset="0.3739" stop-color="#3D3D71" stop-opacity="0.6261" />
<stop offset="0.552" stop-color="#6C6C93" stop-opacity="0.448" />
<stop offset="0.7478" stop-color="#A7A7BF" stop-opacity="0.2522" />
<stop offset="0.9555" stop-color="#EFEFF3" stop-opacity="0.0445192" />
<stop offset="1" stop-color="white" stop-opacity="0" />
</radialGradient>
<radialGradient
      id="paint7_radial"
      cx="0"
      cy="0"
      r="1"
      gradientUnits="userSpaceOnUse"
      gradientTransform="translate(1250.39 306.45) scale(208.048 207.796)"
    >
<stop stop-color="#231F20" />
<stop offset="1" stop-color="white" />
</radialGradient>
<linearGradient id="paint8_linear" x1="1042.34" y1="306.45" x2="1458.43" y2="306.45" gradientUnits="userSpaceOnUse">
<stop offset="0.0027027" stop-opacity="0" />
<stop offset="0.5189" stop-color="#E56AFF" />
<stop offset="1" stop-color="#231F20" stop-opacity="0" />
</linearGradient>
<radialGradient
      id="paint9_radial"
      cx="0"
      cy="0"
      r="1"
      gradientUnits="userSpaceOnUse"
      gradientTransform="translate(1356.56 -256.707) scale(342.533 342.118)"
    >
<stop stop-color="#000044" />
<stop offset="0.0869039" stop-color="#070749" stop-opacity="0.9131" />
<stop offset="0.2169" stop-color="#1C1C58" stop-opacity="0.7831" />
<stop offset="0.3739" stop-color="#3D3D71" stop-opacity="0.6261" />
<stop offset="0.552" stop-color="#6C6C93" stop-opacity="0.448" />
<stop offset="0.7478" stop-color="#A7A7BF" stop-opacity="0.2522" />
<stop offset="0.9555" stop-color="#EFEFF3" stop-opacity="0.0445192" />
<stop offset="1" stop-color="white" stop-opacity="0" />
</radialGradient>
<radialGradient
      id="paint10_radial"
      cx="0"
      cy="0"
      r="1"
      gradientUnits="userSpaceOnUse"
      gradientTransform="translate(1358.34 -19.9304) scale(208.048 207.796)"
    >
<stop stop-color="#231F20" />
<stop offset="1" stop-color="white" />
</radialGradient>
<linearGradient
      id="paint11_linear"
      x1="1150.29"
      y1="-19.9304"
      x2="1566.38"
      y2="-19.9304"
      gradientUnits="userSpaceOnUse"
    >
<stop offset="0.0027027" stop-opacity="0" />
<stop offset="0.5189" stop-color="#E56AFF" />
<stop offset="1" stop-color="#231F20" stop-opacity="0" />
</linearGradient>
<radialGradient
      id="paint12_radial"
      cx="0"
      cy="0"
      r="1"
      gradientUnits="userSpaceOnUse"
      gradientTransform="translate(1160.39 -360.304) rotate(35.882) scale(712.392 222.067)"
    >
<stop stop-color="#000044" />
<stop offset="0.0869039" stop-color="#070749" stop-opacity="0.9131" />
<stop offset="0.2169" stop-color="#1C1C58" stop-opacity="0.7831" />
<stop offset="0.3739" stop-color="#3D3D71" stop-opacity="0.6261" />
<stop offset="0.552" stop-color="#6C6C93" stop-opacity="0.448" />
<stop offset="0.7478" stop-color="#A7A7BF" stop-opacity="0.2522" />
<stop offset="0.9555" stop-color="#EFEFF3" stop-opacity="0.0445192" />
<stop offset="1" stop-color="white" stop-opacity="0" />
</radialGradient>
<radialGradient
      id="paint13_radial"
      cx="0"
      cy="0"
      r="1"
      gradientUnits="userSpaceOnUse"
      gradientTransform="translate(1452.71 40.8499) rotate(35.882) scale(432.674 134.873)"
    >
<stop stop-color="#231F20" />
<stop offset="1" stop-color="white" />
</radialGradient>
<linearGradient id="paint14_linear" x1="1102.15" y1="-212.748" x2="1320.6" y2="-371.163" gradientUnits="userSpaceOnUse">
<stop offset="0.0027027" stop-opacity="0" />
<stop offset="0.5189" stop-color="#E56AFF" />
<stop offset="1" stop-color="#231F20" stop-opacity="0" />
</linearGradient>
<radialGradient
      id="paint15_radial"
      cx="0"
      cy="0"
      r="1"
      gradientUnits="userSpaceOnUse"
      gradientTransform="translate(827.926 -433.231) rotate(37.5869) scale(880.257 224.18)"
    >
<stop stop-color="#000044" />
<stop offset="0.0869039" stop-color="#070749" stop-opacity="0.9131" />
<stop offset="0.2169" stop-color="#1C1C58" stop-opacity="0.7831" />
<stop offset="0.3739" stop-color="#3D3D71" stop-opacity="0.6261" />
<stop offset="0.552" stop-color="#6C6C93" stop-opacity="0.448" />
<stop offset="0.7478" stop-color="#A7A7BF" stop-opacity="0.2522" />
<stop offset="0.9555" stop-color="#EFEFF3" stop-opacity="0.0445192" />
<stop offset="1" stop-color="white" stop-opacity="0" />
</radialGradient>
<radialGradient
      id="paint16_radial"
      cx="0"
      cy="0"
      r="1"
      gradientUnits="userSpaceOnUse"
      gradientTransform="translate(1203.59 51.7292) rotate(37.5869) scale(534.623 136.155)"
    >
<stop stop-color="#231F20" />
<stop offset="1" stop-color="white" />
</radialGradient>
<linearGradient
      id="paint17_linear"
      x1="779.943"
      y1="-274.371"
      x2="995.602"
      y2="-440.775"
      gradientUnits="userSpaceOnUse"
    >
<stop offset="0.0027027" stop-opacity="0" />
<stop offset="0.5189" stop-color="#E56AFF" />
<stop offset="1" stop-color="#231F20" stop-opacity="0" />
</linearGradient>
<radialGradient
      id="paint18_radial"
      cx="0"
      cy="0"
      r="1"
      gradientUnits="userSpaceOnUse"
      gradientTransform="translate(641.219 -375.14) rotate(39.5751) scale(1210.79 226.444)"
    >
<stop stop-color="#000044" />
<stop offset="0.0869039" stop-color="#070749" stop-opacity="0.9131" />
<stop offset="0.2169" stop-color="#1C1C58" stop-opacity="0.7831" />
<stop offset="0.3739" stop-color="#3D3D71" stop-opacity="0.6261" />
<stop offset="0.552" stop-color="#6C6C93" stop-opacity="0.448" />
<stop offset="0.7478" stop-color="#A7A7BF" stop-opacity="0.2522" />
<stop offset="0.9555" stop-color="#EFEFF3" stop-opacity="0.0445192" />
<stop offset="1" stop-color="white" stop-opacity="0" />
</radialGradient>
<radialGradient
      id="paint19_radial"
      cx="0"
      cy="0"
      r="1"
      gradientUnits="userSpaceOnUse"
      gradientTransform="translate(1180.57 273.977) rotate(39.5751) scale(735.359 137.529)"
    >
<stop stop-color="#231F20" />
<stop offset="1" stop-color="white" />
</radialGradient>
<linearGradient id="paint20_linear" x1="613.76" y1="-194.512" x2="825.611" y2="-370.041" gradientUnits="userSpaceOnUse">
<stop offset="0.0027027" stop-opacity="0" />
<stop offset="0.5189" stop-color="#E56AFF" />
<stop offset="1" stop-color="#231F20" stop-opacity="0" />
</linearGradient>
<radialGradient
      id="paint21_radial"
      cx="0"
      cy="0"
      r="1"
      gradientUnits="userSpaceOnUse"
      gradientTransform="translate(408.04 807.553) rotate(180) scale(341.558 341.144)"
    >
<stop stop-color="#000044" />
<stop offset="0.0869039" stop-color="#070749" stop-opacity="0.9131" />
<stop offset="0.2169" stop-color="#1C1C58" stop-opacity="0.7831" />
<stop offset="0.3739" stop-color="#3D3D71" stop-opacity="0.6261" />
<stop offset="0.552" stop-color="#6C6C93" stop-opacity="0.448" />
<stop offset="0.7478" stop-color="#A7A7BF" stop-opacity="0.2522" />
<stop offset="0.9555" stop-color="#EFEFF3" stop-opacity="0.0445192" />
<stop offset="1" stop-color="white" stop-opacity="0" />
</radialGradient>
<radialGradient
      id="paint22_radial"
      cx="0"
      cy="0"
      r="1"
      gradientUnits="userSpaceOnUse"
      gradientTransform="translate(406.269 571.45) rotate(180) scale(207.457 207.206)"
    >
<stop stop-color="#231F20" />
<stop offset="1" stop-color="white" />
</radialGradient>
<linearGradient id="paint23_linear" x1="613.726" y1="571.45" x2="198.812" y2="571.45" gradientUnits="userSpaceOnUse">
<stop offset="0.0027027" stop-opacity="0" />
<stop offset="0.5189" stop-color="#E56AFF" />
<stop offset="1" stop-color="#231F20" stop-opacity="0" />
</linearGradient>
<radialGradient
      id="paint24_radial"
      cx="0"
      cy="0"
      r="1"
      gradientUnits="userSpaceOnUse"
      gradientTransform="translate(419.806 577.862) rotate(180) scale(341.558 341.144)"
    >
<stop stop-color="#F8E4A7" />
<stop offset="0.0932759" stop-color="#F8E4A7" />
<stop offset="0.114583" stop-color="#F8E4A7" />
<stop offset="0.5027" stop-color="#21002E" />
<stop offset="0.6911" stop-color="#0F0015" />
<stop offset="0.862" stop-color="#040005" />
<stop offset="1" />
</radialGradient>
<linearGradient id="paint25_linear" x1="625.492" y1="341.76" x2="210.578" y2="341.76" gradientUnits="userSpaceOnUse">
<stop offset="0.0027027" stop-opacity="0" />
<stop offset="0.5189" stop-color="#F8E4A7" />
<stop offset="1" stop-color="#231F20" stop-opacity="0" />
</linearGradient>
<radialGradient
      id="paint26_radial"
      cx="0"
      cy="0"
      r="1"
      gradientUnits="userSpaceOnUse"
      gradientTransform="translate(189.837 589.614) rotate(180) scale(341.558 341.144)"
    >
<stop stop-color="#000044" />
<stop offset="0.0869039" stop-color="#070749" stop-opacity="0.9131" />
<stop offset="0.2169" stop-color="#1C1C58" stop-opacity="0.7831" />
<stop offset="0.3739" stop-color="#3D3D71" stop-opacity="0.6261" />
<stop offset="0.552" stop-color="#6C6C93" stop-opacity="0.448" />
<stop offset="0.7478" stop-color="#A7A7BF" stop-opacity="0.2522" />
<stop offset="0.9555" stop-color="#EFEFF3" stop-opacity="0.0445192" />
<stop offset="1" stop-color="white" stop-opacity="0" />
</radialGradient>
<radialGradient
      id="paint27_radial"
      cx="0"
      cy="0"
      r="1"
      gradientUnits="userSpaceOnUse"
      gradientTransform="translate(188.066 353.512) rotate(180) scale(207.457 207.206)"
    >
<stop stop-color="#231F20" />
<stop offset="1" stop-color="white" />
</radialGradient>
<linearGradient id="paint28_linear" x1="395.523" y1="353.512" x2="-19.3912" y2="353.512" gradientUnits="userSpaceOnUse">
<stop offset="0.0027027" stop-opacity="0" />
<stop offset="0.5189" stop-color="#E56AFF" />
<stop offset="1" stop-color="#231F20" stop-opacity="0" />
</linearGradient>
<radialGradient
      id="paint29_radial"
      cx="0"
      cy="0"
      r="1"
      gradientUnits="userSpaceOnUse"
      gradientTransform="translate(82.1936 915.066) rotate(180) scale(341.558 341.144)"
    >
<stop stop-color="#000044" />
<stop offset="0.0869039" stop-color="#070749" stop-opacity="0.9131" />
<stop offset="0.2169" stop-color="#1C1C58" stop-opacity="0.7831" />
<stop offset="0.3739" stop-color="#3D3D71" stop-opacity="0.6261" />
<stop offset="0.552" stop-color="#6C6C93" stop-opacity="0.448" />
<stop offset="0.7478" stop-color="#A7A7BF" stop-opacity="0.2522" />
<stop offset="0.9555" stop-color="#EFEFF3" stop-opacity="0.0445192" />
<stop offset="1" stop-color="white" stop-opacity="0" />
</radialGradient>
<radialGradient
      id="paint30_radial"
      cx="0"
      cy="0"
      r="1"
      gradientUnits="userSpaceOnUse"
      gradientTransform="translate(80.4229 678.963) rotate(180) scale(207.457 207.206)"
    >
<stop stop-color="#231F20" />
<stop offset="1" stop-color="white" />
</radialGradient>
<linearGradient id="paint31_linear" x1="287.88" y1="678.963" x2="-127.034" y2="678.963" gradientUnits="userSpaceOnUse">
<stop offset="0.0027027" stop-opacity="0" />
<stop offset="0.5189" stop-color="#E56AFF" />
<stop offset="1" stop-color="#231F20" stop-opacity="0" />
</linearGradient>
<radialGradient
      id="paint32_radial"
      cx="0"
      cy="0"
      r="1"
      gradientUnits="userSpaceOnUse"
      gradientTransform="translate(277.894 1018.27) rotate(-144.118) scale(710.364 221.434)"
    >
<stop stop-color="#000044" />
<stop offset="0.0869039" stop-color="#070749" stop-opacity="0.9131" />
<stop offset="0.2169" stop-color="#1C1C58" stop-opacity="0.7831" />
<stop offset="0.3739" stop-color="#3D3D71" stop-opacity="0.6261" />
<stop offset="0.552" stop-color="#6C6C93" stop-opacity="0.448" />
<stop offset="0.7478" stop-color="#A7A7BF" stop-opacity="0.2522" />
<stop offset="0.9555" stop-color="#EFEFF3" stop-opacity="0.0445192" />
<stop offset="1" stop-color="white" stop-opacity="0" />
</radialGradient>
<radialGradient
      id="paint33_radial"
      cx="0"
      cy="0"
      r="1"
      gradientUnits="userSpaceOnUse"
      gradientTransform="translate(-13.5954 618.255) rotate(-144.118) scale(431.445 134.49)"
    >
<stop stop-color="#231F20" />
<stop offset="1" stop-color="white" />
</radialGradient>
<linearGradient id="paint34_linear" x1="335.972" y1="871.132" x2="118.137" y2="1029.1" gradientUnits="userSpaceOnUse">
<stop offset="0.0027027" stop-opacity="0" />
<stop offset="0.5189" stop-color="#E56AFF" />
<stop offset="1" stop-color="#231F20" stop-opacity="0" />
</linearGradient>
<radialGradient
      id="paint35_radial"
      cx="0"
      cy="0"
      r="1"
      gradientUnits="userSpaceOnUse"
      gradientTransform="translate(609.423 1091) rotate(-142.413) scale(877.751 223.542)"
    >
<stop stop-color="#000044" />
<stop offset="0.0869039" stop-color="#070749" stop-opacity="0.9131" />
<stop offset="0.2169" stop-color="#1C1C58" stop-opacity="0.7831" />
<stop offset="0.3739" stop-color="#3D3D71" stop-opacity="0.6261" />
<stop offset="0.552" stop-color="#6C6C93" stop-opacity="0.448" />
<stop offset="0.7478" stop-color="#A7A7BF" stop-opacity="0.2522" />
<stop offset="0.9555" stop-color="#EFEFF3" stop-opacity="0.0445192" />
<stop offset="1" stop-color="white" stop-opacity="0" />
</radialGradient>
<radialGradient
      id="paint36_radial"
      cx="0"
      cy="0"
      r="1"
      gradientUnits="userSpaceOnUse"
      gradientTransform="translate(234.825 607.417) rotate(-142.413) scale(533.103 135.768)"
    >
<stop stop-color="#231F20" />
<stop offset="1" stop-color="white" />
</radialGradient>
<linearGradient id="paint37_linear" x1="657.271" y1="932.59" x2="442.225" y2="1098.52" gradientUnits="userSpaceOnUse">
<stop offset="0.0027027" stop-opacity="0" />
<stop offset="0.5189" stop-color="#E56AFF" />
<stop offset="1" stop-color="#231F20" stop-opacity="0" />
</linearGradient>
<radialGradient
      id="paint38_radial"
      cx="0"
      cy="0"
      r="1"
      gradientUnits="userSpaceOnUse"
      gradientTransform="translate(795.588 1033.06) rotate(-140.425) scale(1207.34 225.8)"
    >
<stop stop-color="#000044" />
<stop offset="0.0869039" stop-color="#070749" stop-opacity="0.9131" />
<stop offset="0.2169" stop-color="#1C1C58" stop-opacity="0.7831" />
<stop offset="0.3739" stop-color="#3D3D71" stop-opacity="0.6261" />
<stop offset="0.552" stop-color="#6C6C93" stop-opacity="0.448" />
<stop offset="0.7478" stop-color="#A7A7BF" stop-opacity="0.2522" />
<stop offset="0.9555" stop-color="#EFEFF3" stop-opacity="0.0445192" />
<stop offset="1" stop-color="white" stop-opacity="0" />
</radialGradient>
<radialGradient
      id="paint39_radial"
      cx="0"
      cy="0"
      r="1"
      gradientUnits="userSpaceOnUse"
      gradientTransform="translate(257.776 385.793) rotate(-140.425) scale(733.27 137.138)"
    >
<stop stop-color="#231F20" />
<stop offset="1" stop-color="white" />
</radialGradient>
<linearGradient id="paint40_linear" x1="822.973" y1="852.951" x2="611.724" y2="1027.98" gradientUnits="userSpaceOnUse">
<stop offset="0.0027027" stop-opacity="0" />
<stop offset="0.5189" stop-color="#E56AFF" />
<stop offset="1" stop-color="#231F20" stop-opacity="0" />
</linearGradient>
<clipPath id="clip0">
<rect width="1440" height="691" fill="white" />
</clipPath>
<clipPath id="clip1">
<rect width="2164" height="1397.85" fill="white" transform="translate(-362 -369.926)" />
</clipPath>
</defs>
</svg>
