<svg width="20" height="20" viewBox="0 0 20 20" fill="none" xmlns="http://www.w3.org/2000/svg">
<path d="M14.5833 0H5.41667C3.98075 0.00220401 2.60428 0.573595 1.58894 1.58894C0.573595 2.60428 0.00220401 3.98075 0 5.41667L0 14.5833C0.00220401 16.0192 0.573595 17.3957 1.58894 18.4111C2.60428 19.4264 3.98075 19.9978 5.41667 20H14.5833C16.0192 19.9978 17.3957 19.4264 18.4111 18.4111C19.4264 17.3957 19.9978 16.0192 20 14.5833V5.41667C19.9978 3.98075 19.4264 2.60428 18.4111 1.58894C17.3957 0.573595 16.0192 0.00220401 14.5833 0V0ZM10 14.5833C9.0935 14.5833 8.20736 14.3145 7.45364 13.8109C6.69991 13.3073 6.11245 12.5915 5.76555 11.754C5.41865 10.9165 5.32789 9.99492 5.50473 9.10584C5.68158 8.21676 6.1181 7.40008 6.75909 6.75909C7.40008 6.1181 8.21676 5.68158 9.10584 5.50473C9.99492 5.32789 10.9165 5.41865 11.754 5.76555C12.5915 6.11245 13.3073 6.69991 13.8109 7.45364C14.3145 8.20736 14.5833 9.0935 14.5833 10C14.5833 11.2156 14.1004 12.3814 13.2409 13.2409C12.3814 14.1004 11.2156 14.5833 10 14.5833ZM15.4167 5.41667C15.1694 5.41667 14.9278 5.34336 14.7222 5.206C14.5166 5.06865 14.3564 4.87343 14.2618 4.64502C14.1672 4.41661 14.1425 4.16528 14.1907 3.9228C14.2389 3.68033 14.358 3.4576 14.5328 3.28278C14.7076 3.10797 14.9303 2.98892 15.1728 2.94069C15.4153 2.89245 15.6666 2.91721 15.895 3.01182C16.1234 3.10643 16.3187 3.26664 16.456 3.4722C16.5934 3.67777 16.6667 3.91944 16.6667 4.16667C16.6667 4.49819 16.535 4.81613 16.3005 5.05055C16.0661 5.28497 15.7482 5.41667 15.4167 5.41667Z" fill="#F7CE2A"/>
</svg>
