<svg width="24" height="24" viewBox="0 0 24 24" fill="none" xmlns="http://www.w3.org/2000/svg">
<path d="M12 1C5.92545 1 1 5.92545 1 12C1 18.0746 5.92545 23 12 23C18.0746 23 23 18.0746 23 12C23 5.92545 18.0746 1 12 1ZM18.2857 7.22924L17.2839 8.18929C17.1955 8.25558 17.1538 8.36362 17.171 8.4692V15.5333C17.1538 15.6413 17.1955 15.7493 17.2839 15.8132L18.2661 16.7732V16.9868H13.3357V16.783L14.3498 15.7984C14.4504 15.6978 14.4504 15.6683 14.4504 15.5185V9.80245L11.6268 16.9623H11.2462L7.96094 9.80245V14.6027C7.93147 14.804 8.00268 15.0078 8.14509 15.1527L9.46607 16.7511V16.9647H5.71429V16.7511L7.03527 15.1527C7.10487 15.0808 7.15666 14.9936 7.18651 14.8981C7.21636 14.8026 7.22342 14.7014 7.20714 14.6027V9.05357C7.22433 8.89888 7.1654 8.74911 7.04754 8.64353L5.87388 7.22924V7.01562H9.52009L12.3339 13.1908L14.8114 7.02054H18.2857V7.22924Z" fill="#FA26CA"/>
</svg>
