<svg width="24" height="24" viewBox="0 0 24 24" fill="none" xmlns="http://www.w3.org/2000/svg">
<path d="M12 1C5.928 1 1 5.928 1 12C1 18.072 5.928 23 12 23C18.072 23 23 18.072 23 12C23 5.928 18.072 1 12 1ZM17.104 8.48C16.939 10.218 16.224 14.442 15.861 16.389C15.707 17.214 15.399 17.489 15.113 17.522C14.475 17.577 13.991 17.104 13.375 16.697C12.407 16.059 11.857 15.663 10.922 15.047C9.833 14.332 10.537 13.936 11.164 13.298C11.329 13.133 14.145 10.57 14.2 10.339C14.2076 10.304 14.2066 10.2677 14.197 10.2332C14.1875 10.1987 14.1696 10.167 14.145 10.141C14.079 10.086 13.991 10.108 13.914 10.119C13.815 10.141 12.275 11.164 9.272 13.188C8.832 13.485 8.436 13.639 8.084 13.628C7.688 13.617 6.94 13.408 6.379 13.221C5.686 13.001 5.147 12.88 5.191 12.495C5.213 12.297 5.488 12.099 6.005 11.89C9.217 10.493 11.351 9.569 12.418 9.129C15.476 7.853 16.103 7.633 16.521 7.633C16.609 7.633 16.818 7.655 16.95 7.765C17.06 7.853 17.093 7.974 17.104 8.062C17.093 8.128 17.115 8.326 17.104 8.48Z" fill="#FA26CA"/>
</svg>
