<svg width="16" height="16" viewBox="0 0 16 16" fill="none" xmlns="http://www.w3.org/2000/svg">
<g clip-path="url(#clip0)">
<path d="M15.9678 1.68397C15.9552 1.62493 15.9271 1.57032 15.8863 1.52583C15.8455 1.48134 15.7935 1.44859 15.7358 1.43097C15.5256 1.38905 15.3079 1.4046 15.1058 1.47597C15.1058 1.47597 1.08676 6.51397 0.285764 7.07197C0.113764 7.19297 0.0557638 7.26197 0.0267638 7.34397C-0.111236 7.74397 0.319764 7.91697 0.319764 7.91697L3.93276 9.09397C3.99376 9.10498 4.05651 9.10121 4.11576 9.08297C4.93776 8.56397 12.3858 3.86097 12.8158 3.70297C12.8838 3.68297 12.9338 3.70297 12.9158 3.75197C12.7438 4.35197 6.30976 10.071 6.27476 10.106C6.25769 10.1202 6.24431 10.1384 6.23578 10.159C6.22725 10.1795 6.22381 10.2018 6.22576 10.224L5.88876 13.752C5.88876 13.752 5.74676 14.852 6.84476 13.752C7.62376 12.973 8.37176 12.327 8.74476 12.014C9.98676 12.872 11.3238 13.82 11.9008 14.314C11.9974 14.4081 12.1121 14.4817 12.2379 14.5303C12.3637 14.5789 12.498 14.6016 12.6328 14.597C12.7988 14.5765 12.9546 14.506 13.0796 14.3949C13.2046 14.2838 13.2929 14.1374 13.3328 13.975C13.3328 13.975 15.8938 3.69997 15.9788 2.31697C15.9868 2.18197 15.9998 2.09997 15.9998 1.99997C16.0035 1.89368 15.9927 1.78738 15.9678 1.68397Z" fill="#F7CE2A"/>
</g>
<defs>
<clipPath id="clip0">
<rect width="16" height="16" fill="white"/>
</clipPath>
</defs>
</svg>
