<svg width="24" height="24" viewBox="0 0 24 24" fill="none" xmlns="http://www.w3.org/2000/svg">
<path d="M12 1C18.0814 1 23 5.91857 23 12C23 18.0814 18.0814 23 12 23C5.91857 23 1 18.0814 1 12C1 5.91857 5.91857 1 12 1ZM9.98857 17.7986C14.86 17.7986 17.5314 13.76 17.5314 10.2557V9.91C18.05 9.53286 18.5057 9.06143 18.8514 8.52714C18.38 8.73143 17.8614 8.87286 17.3271 8.95143C17.8771 8.62143 18.3014 8.10286 18.49 7.49C17.9714 7.78857 17.4057 8.00857 16.8086 8.13429C16.3214 7.61571 15.63 7.30143 14.8757 7.30143C13.4143 7.30143 12.22 8.49571 12.22 9.95714C12.22 10.1614 12.2357 10.3657 12.2986 10.5543C10.0986 10.4443 8.13429 9.39143 6.83 7.78857C6.61 8.18143 6.46857 8.63714 6.46857 9.12429C6.46857 10.0357 6.94 10.8529 7.64714 11.3243C7.20714 11.3243 6.79857 11.1986 6.45286 10.9943V11.0257C6.45286 12.3143 7.36429 13.3829 8.57429 13.6343C8.35429 13.6971 8.11857 13.7286 7.88286 13.7286C7.71 13.7286 7.55286 13.7129 7.38 13.6814C7.71 14.7343 8.7 15.5043 9.84714 15.52C8.93571 16.2271 7.78857 16.6514 6.54714 16.6514C6.32714 16.6514 6.12286 16.6514 5.91857 16.62C7.08143 17.3743 8.48 17.8143 9.97286 17.8143" fill="#FA26CA"/>
</svg>
