<svg width="22" height="22" viewBox="0 0 22 22" fill="none" xmlns="http://www.w3.org/2000/svg">
<path fill-rule="evenodd" clip-rule="evenodd" d="M11 22C17.0751 22 22 17.0751 22 11C22 4.92487 17.0751 0 11 0C4.92487 0 0 4.92487 0 11C0 17.0751 4.92487 22 11 22ZM14 11C14 11.4533 13.96 11.8933 13.9067 12.3333H16.16C16.2667 11.9067 16.3333 11.46 16.3333 11C16.3333 10.54 16.2667 10.0933 16.16 9.66667H13.9067C13.96 10.1067 14 10.5467 14 11ZM13.6467 13.6667C13.4333 14.5 13.1267 15.3 12.7267 16.04C13.9427 15.6213 14.9674 14.7789 15.6133 13.6667H13.6467ZM9.44 12.3333H12.56C12.62 11.8933 12.6667 11.4533 12.6667 11C12.6667 10.5467 12.62 10.1 12.56 9.66667H9.44C9.37333 10.1 9.33333 10.5467 9.33333 11C9.33333 11.4533 9.37333 11.8933 9.44 12.3333ZM9.72667 13.6667C10 14.62 10.4467 15.5067 11 16.3067C11.5533 15.5067 12 14.62 12.2733 13.6667H9.72667ZM6.38667 8.33333H8.33333C8.56667 7.5 8.86667 6.7 9.26667 5.96C8.04986 6.37432 7.0259 7.21814 6.38667 8.33333ZM8.33333 13.6667H6.38667C7.0299 14.7785 8.05242 15.6211 9.26667 16.04C8.86667 15.3 8.56667 14.5 8.33333 13.6667ZM5.66667 11C5.66667 11.46 5.73333 11.9067 5.84 12.3333H8.09333C8.04 11.8933 8 11.4533 8 11C8 10.5467 8.04 10.1067 8.09333 9.66667H5.84C5.73333 10.0933 5.66667 10.54 5.66667 11ZM12.2733 8.33333C12 7.38 11.5533 6.48667 11 5.68667C10.4467 6.48667 10 7.38 9.72667 8.33333H12.2733ZM13.6467 8.33333H15.6133C14.9733 7.22667 13.9533 6.38 12.7267 5.96C13.129 6.7106 13.438 7.50764 13.6467 8.33333ZM4.33333 11C4.33333 7.33333 7.31333 4.33333 11 4.33333C11.8755 4.33333 12.7424 4.50577 13.5512 4.8408C14.3601 5.17583 15.095 5.6669 15.714 6.28595C16.3331 6.90501 16.8242 7.63994 17.1592 8.44878C17.4942 9.25761 17.6667 10.1245 17.6667 11C17.6667 12.7681 16.9643 14.4638 15.714 15.714C14.4638 16.9643 12.7681 17.6667 11 17.6667C10.1245 17.6667 9.25761 17.4942 8.44878 17.1592C7.63994 16.8242 6.90501 16.3331 6.28595 15.714C5.03571 14.4638 4.33333 12.7681 4.33333 11Z" fill="#FA26CA"/>
</svg>
