<svg width="24" height="24" viewBox="0 0 24 24" fill="none" xmlns="http://www.w3.org/2000/svg">
<circle cx="12" cy="12" r="12" fill="#02E2E3"/>
<path fill-rule="evenodd" clip-rule="evenodd" d="M4 12C4 7.584 7.576 4 11.992 4C16.416 4 20 7.584 20 12C20 16.416 16.416 20 11.992 20C7.576 20 4 16.416 4 12ZM15.1759 8.79995H17.5359C16.7679 7.47995 15.5439 6.45595 14.0719 5.95195C14.5519 6.83995 14.9199 7.79995 15.1759 8.79995ZM11.9999 5.63203C12.6639 6.59203 13.1839 7.65603 13.5279 8.80003H10.4719C10.8159 7.65603 11.3359 6.59203 11.9999 5.63203ZM5.6 12C5.6 12.552 5.68 13.088 5.808 13.6H8.512C8.448 13.072 8.4 12.544 8.4 12C8.4 11.456 8.448 10.928 8.512 10.4H5.808C5.68 10.912 5.6 11.448 5.6 12ZM6.46406 15.2H8.82406C9.08006 16.2 9.44806 17.16 9.92806 18.048C8.45606 17.544 7.23206 16.528 6.46406 15.2ZM6.46406 8.79995H8.82406C9.08006 7.79995 9.44806 6.83995 9.92806 5.95195C8.45606 6.45595 7.23206 7.47195 6.46406 8.79995ZM11.9999 18.368C11.3359 17.408 10.8159 16.344 10.4719 15.2H13.5279C13.1839 16.344 12.6639 17.408 11.9999 18.368ZM10.128 13.6H13.872C13.944 13.072 14 12.544 14 12C14 11.456 13.944 10.92 13.872 10.4H10.128C10.056 10.92 10 11.456 10 12C10 12.544 10.056 13.072 10.128 13.6ZM14.0719 18.048C14.5519 17.16 14.9199 16.2 15.1759 15.2H17.5359C16.7679 16.52 15.5439 17.544 14.0719 18.048ZM15.5999 12C15.5999 12.544 15.5519 13.072 15.4879 13.6H18.1919C18.3199 13.088 18.3999 12.552 18.3999 12C18.3999 11.448 18.3199 10.912 18.1919 10.4H15.4879C15.5519 10.928 15.5999 11.456 15.5999 12Z" fill="#121212"/>
</svg>
